<?xml version="1.0" encoding="UTF-8" standalone="no"?>
<!-- Created with Inkscape (http://www.inkscape.org/) -->

<svg
   width="124.24855mm"
   height="106.08579mm"
   viewBox="0 0 124.24855 106.08579"
   version="1.1"
   id="svg1"
   xml:space="preserve"
   inkscape:version="1.3.2 (091e20e, 2023-11-25, custom)"
   sodipodi:docname="fox.svg"
   inkscape:export-filename="fox-complete.png"
   inkscape:export-xdpi="96"
   inkscape:export-ydpi="96"
   xmlns:inkscape="http://www.inkscape.org/namespaces/inkscape"
   xmlns:sodipodi="http://sodipodi.sourceforge.net/DTD/sodipodi-0.dtd"
   xmlns:xlink="http://www.w3.org/1999/xlink"
   xmlns="http://www.w3.org/2000/svg"
   xmlns:svg="http://www.w3.org/2000/svg"><sodipodi:namedview
     id="namedview1"
     pagecolor="#ffffff"
     bordercolor="#dddddd"
     borderopacity="1"
     inkscape:showpageshadow="0"
     inkscape:pageopacity="0"
     inkscape:pagecheckerboard="0"
     inkscape:deskcolor="#353535"
     inkscape:document-units="mm"
     showborder="true"
     inkscape:zoom="0.53588675"
     inkscape:cx="154.88347"
     inkscape:cy="640.99364"
     inkscape:window-width="2560"
     inkscape:window-height="1017"
     inkscape:window-x="1912"
     inkscape:window-y="-8"
     inkscape:window-maximized="1"
     inkscape:current-layer="layer1"
     showguides="true" /><defs
     id="defs1"><linearGradient
       id="linearGradient10"
       inkscape:collect="always"><stop
         style="stop-color:#dc7c40;stop-opacity:1;"
         offset="0"
         id="stop11" /><stop
         style="stop-color:#ffa15f;stop-opacity:1;"
         offset="1"
         id="stop16" /></linearGradient><linearGradient
       id="linearGradient4"
       inkscape:collect="always"><stop
         style="stop-color:#623925;stop-opacity:1"
         offset="0.48000002"
         id="stop3" /><stop
         style="stop-color:#dc7c40;stop-opacity:1;"
         offset="0.48000002"
         id="stop7" /><stop
         style="stop-color:#ffa15f;stop-opacity:1;"
         offset="0.9130435"
         id="stop4" /></linearGradient><linearGradient
       id="linearGradient22"
       inkscape:collect="always"><stop
         style="stop-color:#ffa15f;stop-opacity:1;"
         offset="0"
         id="stop23" /><stop
         style="stop-color:#dc7c40;stop-opacity:1;"
         offset="1"
         id="stop22" /></linearGradient><linearGradient
       id="linearGradient8"
       inkscape:collect="always"><stop
         style="stop-color:#623925;stop-opacity:1;"
         offset="0.27826086"
         id="stop8" /><stop
         style="stop-color:#dc7c40;stop-opacity:1"
         offset="0.27826086"
         id="stop9" /></linearGradient><linearGradient
       id="linearGradient5"
       inkscape:collect="always"><stop
         style="stop-color:#623925;stop-opacity:1;"
         offset="0.47130436"
         id="stop5" /><stop
         style="stop-color:#dc7c40;stop-opacity:1;"
         offset="0.86956519"
         id="stop17" /></linearGradient><linearGradient
       id="linearGradient1"
       inkscape:collect="always"><stop
         style="stop-color:#623925;stop-opacity:1"
         offset="0.48000002"
         id="stop2" /><stop
         style="stop-color:#dc7c40;stop-opacity:1;"
         offset="0.48000002"
         id="stop10" /><stop
         style="stop-color:#ffa15f;stop-opacity:1;"
         offset="0.9130435"
         id="stop1" /></linearGradient><linearGradient
       inkscape:collect="always"
       xlink:href="#linearGradient4"
       id="linearGradient2"
       x1="67.417351"
       y1="217.5392"
       x2="83.514832"
       y2="172.15363"
       gradientUnits="userSpaceOnUse" /><linearGradient
       inkscape:collect="always"
       xlink:href="#linearGradient1"
       id="linearGradient3"
       gradientUnits="userSpaceOnUse"
       x1="67.417351"
       y1="217.5392"
       x2="83.514832"
       y2="172.15363"
       gradientTransform="matrix(-1,0,0,1,251.58223,0)" /><linearGradient
       inkscape:collect="always"
       xlink:href="#linearGradient5"
       id="linearGradient6"
       x1="124.32587"
       y1="248.41016"
       x2="125.47928"
       y2="221.51151"
       gradientUnits="userSpaceOnUse" /><linearGradient
       inkscape:collect="always"
       xlink:href="#linearGradient8"
       id="linearGradient9"
       x1="9.4262342"
       y1="158.8495"
       x2="62.492443"
       y2="241.24178"
       gradientUnits="userSpaceOnUse" /><linearGradient
       inkscape:collect="always"
       xlink:href="#linearGradient22"
       id="linearGradient23"
       x1="127.87605"
       y1="37.523476"
       x2="128.61665"
       y2="172.55861"
       gradientUnits="userSpaceOnUse" /><linearGradient
       inkscape:collect="always"
       xlink:href="#linearGradient10"
       id="linearGradient16"
       x1="126.8886"
       y1="228.10323"
       x2="127.87605"
       y2="172.80548"
       gradientUnits="userSpaceOnUse" /></defs><g
     inkscape:label="Layer 1"
     inkscape:groupmode="layer"
     id="layer1"
     transform="translate(-61.93403,-138.7569)"><path
       id="path81"
       style="display:none;fill:url(#linearGradient9);fill-opacity:1;stroke-width:0.147549"
       d="m 4.5818671,178.81345 c 1.88e-5,31.28997 25.3655419,56.6555 56.6555099,56.65552 18.679299,-0.0374 36.139792,-9.27957 46.673753,-24.7053 -43.824706,-31.66487 -38.347192,6.69658 -72.624593,-40.77234 -3.185711,-3.72946 -10.180041,-13.97604 -23.677706,-18.0554 -7.8637026,10.27915 -7.1808594,18.48604 -7.0269639,26.87752 z"
       inkscape:label="tail"
       sodipodi:nodetypes="cccccc" /><use
       x="0"
       y="0"
       xlink:href="#rect69"
       id="use6"
       transform="matrix(-1,0,0,1,256.4754,0)"
       inkscape:label="legR"
       style="display:none" /><rect
       style="display:none;fill:url(#linearGradient6);fill-opacity:1;stroke-width:0.659319;stroke-dasharray:none"
       id="rect69"
       width="25.662418"
       height="45.854858"
       x="111.80401"
       y="203.92683"
       ry="5.7613301"
       transform="matrix(0.99957616,0.02911192,-0.07302746,0.99732993,0,0)"
       inkscape:label="legL"
       rx="5.7613306" /><path
       id="path2"
       style="display:none;fill:url(#linearGradient3);fill-opacity:1;stroke-width:12.0022;stroke-linecap:round"
       d="m 162.21536,157.55414 c 6.46974,-2.43978 13.25684,0.96332 16.08227,7.27425 3.73188,8.33536 8.87273,23.52836 8.87273,23.52836 6.0021,15.91534 6.4632,28.75248 -0.007,31.19237 -6.46978,2.43973 -14.69258,0.57234 -23.28507,-22.21259 -2.37463,-6.29718 -7.03287,-16.04876 -8.93751,-23.70015 -1.62597,-6.53157 0.8045,-13.64237 7.2742,-16.08224 z"
       sodipodi:nodetypes="sssssss"
       inkscape:label="armR" /><path
       id="path70"
       style="display:inline;fill:url(#linearGradient16);fill-opacity:1;stroke-width:14.1819;stroke-linecap:round"
       d="m 89.231301,158.87427 c -5.238744,23.53672 -4.160138,36.79364 -4.160138,36.79364 h 0.0036 c -0.0992,0.99769 -0.152426,2.01004 -0.152426,3.03588 0,15.95986 8.721528,30.21733 40.856103,30.21733 31.23339,-0.15628 40.85627,-14.25747 40.85627,-30.21733 0,-1.02584 0.0109,-1.4553 -0.0175,-2.49304 0,0 0.77902,-17.90682 -4.2922,-37.33648 z"
       sodipodi:nodetypes="cccscsccc"
       inkscape:label="body" /><path
       id="path71"
       style="display:inline;fill:#feead7;stroke-width:1.20553"
       inkscape:label="belly"
       d="m 160.58435,168.131 c 0,18.75118 4.92308,48.32602 -23.78353,52.30179 -28.70663,3.97579 -31.73512,-27.12819 -31.73512,-45.87935 0,-18.75118 14.71746,-23.24793 28.6768,-23.24795 13.95935,0 26.84185,-1.92566 26.84185,16.82551 z"
       sodipodi:nodetypes="szszs" /><path
       id="path72"
       style="display:none;fill:url(#linearGradient2);stroke-width:12.0022;stroke-linecap:round"
       d="m 89.366872,157.55414 c -6.469741,-2.43978 -13.256847,0.96332 -16.082275,7.27425 -3.731884,8.33536 -8.872732,23.52836 -8.872732,23.52836 -6.0021,15.91534 -6.463193,28.75248 0.0071,31.19237 6.469782,2.43973 14.692586,0.57234 23.285069,-22.21259 2.374638,-6.29718 7.032876,-16.04876 8.937517,-23.70015 1.625962,-6.53157 -0.8045,-13.64237 -7.274202,-16.08224 z"
       sodipodi:nodetypes="sssssss"
       inkscape:label="armL" /><path
       id="path77"
       style="display:none;fill:url(#linearGradient23);fill-opacity:1;stroke-width:0.927103"
       inkscape:label="head"
       d="m 122.76639,36.318521 c -36.422359,0.259052 -69.149594,22.435735 -83.106198,55.519425 -0.961255,2.258968 -2.790983,6.871929 -4.286076,12.733194 -5.597141,6.10965 -22.23593,6.31432 -22.435201,6.69002 -0.297492,0.46723 12.42433,13.07956 12.42433,13.34217 -0.217249,0.32869 -3.763593,5.59116 -9.04569,5.07674 -0.15733,0.37001 17.461392,12.699 23.865683,19.26164 21.962019,16.29593 36.763897,26.90595 86.253302,26.90595 44.82341,0 71.9832,-10.93194 84.87351,-26.81905 6.39773,-6.5552 15.12218,-24.47297 14.96404,-24.8445 -4.04142,0.39362 -6.88458,0.17626 -7.92231,-1.39299 0.1626,-1.78898 9.34606,-15.93087 8.92411,-16.59346 -0.18676,-0.35235 -7.15588,3.84884 -9.98506,-0.53833 C 215.335,99.097467 213.21788,94.380632 211.98188,91.70759 197.43614,60.681766 166.74067,35.892699 127.04862,36.389177 Z"
       sodipodi:nodetypes="cccccccscccccccc" /><path
       id="path78"
       style="display:none;fill:#feead7;fill-opacity:1;stroke-width:1.54468"
       inkscape:label="white_fur"
       d="m 227.27589,106.19769 c -15.16174,7.83445 -28.448,10.43547 -41.13726,10.44053 -17.22849,0.007 -16.78322,-4.68239 -34.01174,-4.70796 v -0.001 c -15.69918,-0.0245 -42.38069,8.82579 -59.316555,9.40686 -15.017717,0.51524 -63.846678,-0.0673 -79.87142,-10.07414 0.13315,0.22706 0.358494,0.53646 0.568595,0.83293 2.391562,2.86672 11.855735,12.28234 11.855735,12.50924 -0.19097,0.28873 -2.948736,4.37764 -7.195113,5.0224 -0.538637,0.0909 -1.145182,0.123 -1.850577,0.0543 -0.15733,0.37002 17.460831,12.69929 23.865122,19.26193 21.961985,16.29592 36.763966,26.90594 86.253283,26.90594 44.82338,0 71.98324,-10.93193 84.87353,-26.81901 6.39772,-6.55521 15.12274,-24.47328 14.9646,-24.8448 -4.04142,0.39359 -6.88458,0.17625 -7.92231,-1.39299 0.14016,-1.54383 6.97258,-12.25113 8.57826,-15.59211 z"
       sodipodi:nodetypes="ccccsccccccsccccc" /><rect
       style="display:none;opacity:0;fill:#4f6781;fill-opacity:1;stroke-width:0.491809;stroke-dasharray:none"
       id="rect31"
       width="163.2532"
       height="131.01913"
       x="-29.652872"
       y="128.38857"
       rx="1.1273516"
       ry="1.3355954"
       inkscape:label="export_tail"
       inkscape:export-filename="exported\tail.svg"
       inkscape:export-xdpi="96"
       inkscape:export-ydpi="96" /><rect
       style="display:none;opacity:0;fill:#4f6781;fill-opacity:1;stroke-width:0.21537;stroke-dasharray:none"
       id="rect30"
       width="53.645161"
       height="76.461983"
       x="80.69577"
       y="190.35167"
       rx="0.37044886"
       ry="0.77944541"
       inkscape:label="export_leg"
       inkscape:export-filename="exported\leg.svg"
       inkscape:export-xdpi="96"
       inkscape:export-ydpi="96" /><rect
       style="display:none;opacity:0;fill:#4f6781;fill-opacity:1;stroke-width:0.386075;stroke-dasharray:none"
       id="rect28"
       width="124.24854"
       height="106.08578"
       x="61.934032"
       y="138.7569"
       rx="0.85800344"
       ry="1.0814273"
       inkscape:label="export_body"
       inkscape:export-filename="exported\body.svg"
       inkscape:export-xdpi="96"
       inkscape:export-ydpi="96" /><rect
       style="display:none;opacity:0;fill:#4f6781;fill-opacity:1;stroke-width:0.269513;stroke-dasharray:none"
       id="rect25"
       width="70.185104"
       height="91.520744"
       x="42.431705"
       y="142.21301"
       rx="0.4846662"
       ry="0.93295294"
       inkscape:label="export_arm"
       inkscape:export-filename="exported\ear.svg"
       inkscape:export-xdpi="96"
       inkscape:export-ydpi="96" /><rect
       style="display:none;opacity:0;fill:#4f6781;fill-opacity:1;stroke-width:0.674304;stroke-dasharray:none"
       id="rect26"
       width="238.44882"
       height="168.62485"
       x="3.4911993"
       y="20.598068"
       rx="1.6466181"
       ry="1.718944"
       inkscape:label="export_head"
       inkscape:export-filename="exported\head.svg"
       inkscape:export-xdpi="96"
       inkscape:export-ydpi="96" /></g></svg>
