<?xml version="1.0" encoding="UTF-8" standalone="no"?>
<!-- Created with Inkscape (http://www.inkscape.org/) -->

<svg
   width="62.143314mm"
   height="74.711617mm"
   viewBox="0 0 62.143314 74.711617"
   version="1.1"
   id="svg1"
   xml:space="preserve"
   inkscape:version="1.3.2 (091e20e, 2023-11-25, custom)"
   sodipodi:docname="fox.svg"
   inkscape:export-filename="exported\fox\head.svg"
   inkscape:export-xdpi="96"
   inkscape:export-ydpi="96"
   xmlns:inkscape="http://www.inkscape.org/namespaces/inkscape"
   xmlns:sodipodi="http://sodipodi.sourceforge.net/DTD/sodipodi-0.dtd"
   xmlns:xlink="http://www.w3.org/1999/xlink"
   xmlns="http://www.w3.org/2000/svg"
   xmlns:svg="http://www.w3.org/2000/svg"><sodipodi:namedview
     id="namedview1"
     pagecolor="#ffffff"
     bordercolor="#dddddd"
     borderopacity="1"
     inkscape:showpageshadow="0"
     inkscape:pageopacity="0"
     inkscape:pagecheckerboard="0"
     inkscape:deskcolor="#353535"
     inkscape:document-units="mm"
     showborder="true"
     inkscape:zoom="0.75785831"
     inkscape:cx="137.88857"
     inkscape:cy="404.42916"
     inkscape:window-width="2560"
     inkscape:window-height="1017"
     inkscape:window-x="1912"
     inkscape:window-y="-8"
     inkscape:window-maximized="1"
     inkscape:current-layer="layer1"
     showguides="true" /><defs
     id="defs1"><linearGradient
       id="linearGradient22"
       inkscape:collect="always"><stop
         style="stop-color:#ffa15f;stop-opacity:1;"
         offset="0.09440559"
         id="stop23" /><stop
         style="stop-color:#dc7c40;stop-opacity:1;"
         offset="0.84440559"
         id="stop22" /></linearGradient><linearGradient
       id="linearGradient14"
       inkscape:collect="always"><stop
         style="stop-color:#623925;stop-opacity:1;"
         offset="0"
         id="stop14" /><stop
         style="stop-color:#392217;stop-opacity:1;"
         offset="1"
         id="stop15" /></linearGradient><linearGradient
       id="linearGradient12"
       inkscape:collect="always"><stop
         style="stop-color:#ffaa6e;stop-opacity:1;"
         offset="0"
         id="stop13" /><stop
         style="stop-color:#dc7c40;stop-opacity:1"
         offset="1"
         id="stop12" /></linearGradient><linearGradient
       inkscape:collect="always"
       xlink:href="#linearGradient12"
       id="linearGradient13"
       x1="108.73038"
       y1="86.698586"
       x2="115.39259"
       y2="106.10267"
       gradientUnits="userSpaceOnUse"
       gradientTransform="matrix(3.4900022,-0.31307532,0.31307532,3.4900022,-354.94271,-262.60243)" /><linearGradient
       inkscape:collect="always"
       xlink:href="#linearGradient14"
       id="linearGradient15"
       x1="109.93742"
       y1="89.562584"
       x2="114.77606"
       y2="103.43627"
       gradientUnits="userSpaceOnUse"
       gradientTransform="matrix(3.4900022,-0.31307532,0.31307532,3.4900022,-354.94271,-262.60243)" /><linearGradient
       inkscape:collect="always"
       xlink:href="#linearGradient22"
       id="linearGradient23"
       x1="127.87605"
       y1="37.523476"
       x2="128.61665"
       y2="172.55861"
       gradientUnits="userSpaceOnUse" /></defs><g
     inkscape:label="Layer 1"
     inkscape:groupmode="layer"
     id="layer1"
     transform="translate(-70.871317,-47.13117)"><g
       id="g81"
       inkscape:label="designs"
       style="display:none"><g
         id="g21"
         inkscape:label="v1"
         transform="translate(-84.417543,-78.99679)"
         style="display:inline"><path
           id="path18"
           style="display:inline;opacity:1;fill:#dc7c40;fill-opacity:1;stroke-width:4.04728;stroke-linecap:round"
           d="m 116.88572,131.66188 c -1.49507,6.71707 -1.18725,10.50042 -1.18725,10.50042 h 9.6e-4 c -0.0283,0.28473 -0.0435,0.57364 -0.0435,0.8664 0,4.55473 2.48901,8.62363 11.65979,8.62363 8.9136,-0.0446 11.65984,-4.0689 11.65984,-8.62363 0,-0.29276 0.003,-0.41532 -0.005,-0.71148 0,0 0.22232,-5.11037 -1.22494,-10.65534 z"
           sodipodi:nodetypes="cccscsccc"
           inkscape:label="body" /><use
           x="0"
           y="0"
           xlink:href="#path19"
           id="use16"
           transform="matrix(-1,0,0,1,254.63876,0)"
           inkscape:label="armR" /><path
           id="path19"
           style="display:inline;fill:#dc7c40;fill-opacity:1;stroke-width:3.42526;stroke-linecap:round"
           d="m 116.03168,131.02172 c -1.90607,-0.51072 -3.73775,0.64685 -4.36246,2.51867 -0.82514,2.47227 -1.85733,6.93175 -1.85733,6.93175 -1.25643,4.68887 -1.02593,8.34753 0.88016,8.85827 1.90608,0.51071 4.18873,-0.25115 5.9874,-6.96388 0.49707,-1.85523 1.54541,-4.75578 1.87088,-6.98236 0.27786,-1.90071 -0.61259,-3.85171 -2.51865,-4.36245 z"
           sodipodi:nodetypes="sssssss"
           inkscape:label="armL" /><g
           id="g18"
           inkscape:label="earL"
           transform="translate(-0.09938892)"><path
             style="display:inline;opacity:1;fill:#dc7c40;fill-opacity:1;stroke:none;stroke-width:0.280385px;stroke-linecap:butt;stroke-linejoin:miter;stroke-opacity:1"
             d="m 122.9435,101.89033 c -1.43364,-5.595811 -9.80798,-16.804824 -12.11657,-16.18624 -1.53358,0.410923 -4.70716,7.077447 -5.26212,21.87629 z"
             id="path15"
             sodipodi:nodetypes="cscc"
             inkscape:label="ear" /><path
             style="fill:#623925;fill-opacity:1;stroke:none;stroke-width:0.264583px;stroke-linecap:butt;stroke-linejoin:miter;stroke-opacity:1"
             d="m 107.94171,108.18858 c 0,0 2.83894,-19.31719 3.45611,-19.440623 0.80231,-0.06172 8.70199,12.034663 8.70199,12.034663 z"
             id="path17"
             sodipodi:nodetypes="cccc"
             inkscape:label="dark" /></g><use
           x="0"
           y="0"
           xlink:href="#g18"
           id="use18"
           transform="matrix(-1,0,0,1,253.98349,0)"
           inkscape:label="earR"
           style="fill:#623925;fill-opacity:1" /><path
           id="path27"
           style="fill:#dc7c40;fill-opacity:1;stroke-width:0.264583"
           inkscape:label="head"
           d="m 126.45619,96.686088 c -10.39446,0.07393 -19.73438,6.402862 -23.71741,15.844512 l -0.062,-0.13178 c 0.0107,0.0768 0.0149,0.15028 0.0222,0.22531 -0.47449,1.13737 -0.87177,2.31869 -1.18339,3.54036 -1.597349,1.74361 -4.213148,2.3319 -4.270026,2.43912 -0.07372,0.1158 3.493796,3.74726 3.538286,3.79254 5.1e-4,0.0106 0.002,0.021 0.002,0.0315 -0.062,0.0938 -1.068619,1.57928 -2.576064,1.43247 -0.04494,0.1056 2.850564,3.09425 4.678264,4.96714 3.21287,4.56336 10.49193,7.6786 24.61555,7.6786 12.79201,0 20.54306,-3.11983 24.22178,-7.6538 1.82583,-1.87077 4.74769,-4.88591 4.70256,-4.99194 -1.15337,0.11233 -1.8722,-0.73658 -2.16835,-1.18442 0.0145,-0.15968 0.0296,-0.3192 0.0377,-0.48008 0.51359,-0.56485 3.16273,-3.48633 3.09542,-3.59203 -0.0533,-0.10055 -2.35665,-0.62558 -3.96049,-2.12855 -0.39702,-1.33202 -0.89212,-2.64409 -1.48621,-3.91914 0.006,-0.0527 0.008,-0.10352 0.0155,-0.1571 l -0.0444,0.0946 c -4.15116,-8.85436 -12.91124,-15.928836 -24.23883,-15.787148 -0.40884,-0.01637 -0.81625,-0.02304 -1.22215,-0.02015 z" /><path
           id="rect13"
           style="display:inline;fill:#feead7;fill-opacity:1;stroke-width:0.440828"
           inkscape:label="white_fur"
           d="m 127.50367,118.2641 c -4.48035,-0.007 -12.1383,2.82424 -16.92794,2.68459 -4.28656,-0.12498 -8.70833,0.58365 -13.281581,-2.27221 0.240366,0.41055 3.475991,3.70557 3.496941,3.7269 2.6e-4,0.005 7.7e-4,0.0103 0.001,0.0155 -0.0305,0.0468 -1.049678,1.59052 -2.582274,1.44126 -0.04519,0.1062 2.886794,3.13132 4.711854,5.00125 2.81929,3.97556 8.73432,6.84456 19.60087,7.50135 0.009,5.2e-4 0.0172,0.001 0.0258,0.002 0.67125,0.0403 1.36951,0.0683 2.07894,0.0915 0.15285,0.005 0.30216,0.012 0.45631,0.016 0.78464,0.0213 1.58841,0.0341 2.42,0.0341 0.69652,0 1.37694,-0.01 2.04329,-0.0279 0.0932,-0.002 0.18312,-0.008 0.27595,-0.0103 10.06425,-0.31395 16.67541,-2.68157 20.45405,-6.15415 l 0.007,0.014 c 0,0 0.18853,-0.19245 0.22944,-0.2341 0.19301,-0.18558 0.37709,-0.37437 0.55449,-0.56586 1.59632,-1.63033 5.41225,-5.54554 5.3604,-5.66735 -1.23763,0.12053 -1.96939,-0.85753 -2.22054,-1.26711 0.0105,-0.11115 0.0246,-0.22155 0.032,-0.33331 0.38319,-0.42106 3.22266,-3.54719 3.1533,-3.65611 -0.004,-0.007 -0.0883,-0.0332 -0.11266,-0.0444 -4.32697,2.23585 -9.18282,1.87611 -12.80418,1.87755 -4.91678,0.002 -12.05551,-2.16532 -16.9723,-2.17262 z"
           sodipodi:nodetypes="cscccccscccscccccccccccscc" /><use
           x="0"
           y="0"
           xlink:href="#ellipse17"
           id="use19"
           transform="matrix(-1,0,0,1,254.48131,0)"
           style="display:inline"
           inkscape:label="eyeR" /><ellipse
           style="fill:#37321f;fill-opacity:1;stroke-width:0.206165"
           id="ellipse17"
           cx="-140.70369"
           cy="76.296669"
           rx="2.2692788"
           ry="2.8616297"
           inkscape:label="eyeL"
           transform="matrix(-0.96592583,-0.25881905,-0.25881905,0.96592583,0,0)" /><path
           id="path12"
           style="fill:#37321f;fill-opacity:1;stroke-width:0.264583"
           d="m 129.66952,117.71883 c 0,0.81946 -0.97691,2.11654 -2.182,2.11654 -1.20509,0 -2.182,-1.29708 -2.182,-2.11654 0,-0.81946 0.97691,-0.85098 2.182,-0.85098 1.20509,0 2.182,0.0315 2.182,0.85098 z"
           sodipodi:nodetypes="sssss"
           inkscape:label="nose" /><rect
           style="fill:#dc7c40;fill-opacity:1;stroke-width:0.188076"
           id="rect16"
           width="6.7871222"
           height="10.812413"
           x="129.32121"
           y="144.19652"
           ry="1.1283009"
           transform="matrix(0.99957616,0.02911192,-0.07302746,0.99732993,0,0)"
           inkscape:label="legL" /><use
           x="0"
           y="0"
           xlink:href="#rect16"
           id="use17"
           transform="matrix(-1,0,0,1,254.63866,0)"
           style="display:inline"
           inkscape:label="legR" /><ellipse
           style="fill:#feead7;fill-opacity:1;stroke-width:0.344045"
           id="path21"
           cx="127.31934"
           cy="139.54042"
           rx="7.5293818"
           ry="9.6894503"
           inkscape:label="belly" /></g><g
         id="g45"
         inkscape:label="v2"
         style="display:inline"
         transform="translate(12.917432)"><use
           x="0"
           y="0"
           xlink:href="#rect29"
           id="use34"
           transform="matrix(-1,0,0,1,232.33622,0)"
           inkscape:label="legR" /><rect
           style="display:inline;fill:#dc7c40;fill-opacity:1;stroke-width:0.188076"
           id="rect29"
           width="7.3237143"
           height="13.086371"
           x="111.8779"
           y="63.207779"
           ry="1.1283009"
           transform="matrix(0.99957616,0.02911192,-0.07302746,0.99732993,0,0)"
           inkscape:label="legL" /><use
           x="0"
           y="0"
           xlink:href="#path33"
           id="use33"
           transform="matrix(-1,0,0,1,230.93972,0)"
           inkscape:label="armR" /><path
           id="path22"
           style="display:inline;fill:#dc7c40;fill-opacity:1;stroke-width:4.04728;stroke-linecap:round"
           d="m 105.0362,52.66509 c -1.49507,6.71707 -1.18725,10.50042 -1.18725,10.50042 h 9.6e-4 c -0.0283,0.28473 -0.0435,0.57364 -0.0435,0.8664 0,4.55473 2.48901,8.62363 11.65979,8.62363 8.9136,-0.0446 11.65984,-4.0689 11.65984,-8.62363 0,-0.29276 0.003,-0.41532 -0.005,-0.71148 0,0 0.22232,-5.11037 -1.22494,-10.65534 z"
           sodipodi:nodetypes="cccscsccc"
           inkscape:label="body" /><path
           id="ellipse29"
           style="display:inline;fill:#feead7;stroke-width:0.344045"
           inkscape:label="belly"
           d="m 125.39942,55.306832 c 0,5.35134 1.40498,13.791609 -6.78751,14.926247 -8.19249,1.134637 -9.05678,-7.742033 -9.05678,-13.093368 0,-5.351335 4.20017,-6.63465 8.18398,-6.634653 3.98381,-3e-6 7.66031,-0.549566 7.66031,4.801774 z"
           sodipodi:nodetypes="szszs" /><path
           id="path33"
           style="display:inline;fill:#dc7c40;fill-opacity:1;stroke-width:3.42526;stroke-linecap:round"
           d="m 105.07489,52.288339 c -1.84638,-0.696285 -3.78333,0.274921 -4.58967,2.075974 -1.065032,2.378798 -2.532166,6.714683 -2.532166,6.714683 -1.712911,4.542032 -1.844505,8.205583 0.0019,8.901889 1.846393,0.696275 4.193076,0.163342 6.645256,-6.339177 0.67769,-1.797137 2.00709,-4.580104 2.55065,-6.76371 0.46403,-1.864022 -0.22959,-3.893356 -2.07596,-4.589659 z"
           sodipodi:nodetypes="sssssss"
           inkscape:label="armL" /><g
           id="g32"
           inkscape:label="earR"
           transform="matrix(-0.99303208,-0.11784444,-0.11784444,0.99303208,255.51405,-64.169803)"
           style="display:inline"><path
             style="display:inline;opacity:1;fill:#dc7c40;fill-opacity:1;stroke:none;stroke-width:0.280385px;stroke-linecap:butt;stroke-linejoin:miter;stroke-opacity:1"
             d="m 122.9435,101.89033 c -1.43364,-5.595811 -11.98998,-16.542984 -14.29857,-15.9244 -1.53358,0.410923 -2.52516,6.815607 -3.08012,21.61445 z"
             id="path31"
             sodipodi:nodetypes="cscc"
             inkscape:label="ear" /><path
             style="fill:#623925;fill-opacity:1;stroke:none;stroke-width:0.264583px;stroke-linecap:butt;stroke-linejoin:miter;stroke-opacity:1"
             d="m 108.20355,111.94162 c 0,0 1.00606,-22.89567 1.62323,-23.019103 0.80231,-0.06172 14.81159,17.751503 14.81159,17.751503 z"
             id="path32"
             sodipodi:nodetypes="cccc"
             inkscape:label="dark" /></g><g
           id="g25"
           inkscape:label="earL"
           transform="rotate(-5.1260737,-766.15542,208.85811)"
           style="display:inline"><path
             style="display:inline;opacity:1;fill:#dc7c40;fill-opacity:1;stroke:none;stroke-width:0.280385px;stroke-linecap:butt;stroke-linejoin:miter;stroke-opacity:1"
             d="m 122.9435,101.89033 c -1.43364,-5.595811 -11.98998,-16.542984 -14.29857,-15.9244 -1.53358,0.410923 -2.52516,6.815607 -3.08012,21.61445 z"
             id="path24"
             sodipodi:nodetypes="cscc"
             inkscape:label="ear" /><path
             style="fill:#623925;fill-opacity:1;stroke:none;stroke-width:0.264583px;stroke-linecap:butt;stroke-linejoin:miter;stroke-opacity:1"
             d="m 108.20355,111.94162 c 0,0 1.00606,-22.89567 1.62323,-23.019103 0.80231,-0.06172 14.81159,17.751503 14.81159,17.751503 z"
             id="path25"
             sodipodi:nodetypes="cccc"
             inkscape:label="dark" /></g><path
           id="path26"
           style="display:inline;fill:#dc7c40;fill-opacity:1;stroke-width:0.264583"
           inkscape:label="head"
           d="m 114.60667,17.689298 c -10.39446,0.07393 -19.73438,6.402862 -23.71741,15.844512 -0.27433,0.644675 -0.796514,1.961155 -1.22319,3.63389 -1.59735,1.74361 -5.173229,2.41918 -5.230099,2.5264 -0.08486,0.133342 3.545735,3.732729 3.545735,3.807675 -0.062,0.0938 -1.074075,1.595645 -2.581515,1.448835 -0.0449,0.1056 3.810639,3.00697 5.638339,4.87986 6.267668,4.65064 10.49193,7.6786 24.61555,7.6786 12.79201,0 20.54306,-3.11983 24.22178,-7.6538 1.82583,-1.87077 3.51336,-6.428816 3.46823,-6.534846 -1.15337,0.11233 -1.96477,0.0503 -2.26092,-0.397538 0.0464,-0.510553 2.66724,-4.546464 2.54682,-4.73556 -0.0533,-0.10055 -1.23988,0.542964 -2.04729,-0.709076 -0.55817,-1.872671 -1.16237,-3.218792 -1.51511,-3.98164 -4.15116,-8.85436 -12.91124,-15.928836 -24.23883,-15.787148 z"
           sodipodi:nodetypes="cccccccscccccccc" /><path
           id="path28"
           style="display:inline;fill:#feead7;fill-opacity:1;stroke-width:0.440828"
           inkscape:label="white_fur"
           d="m 143.62999,38.187333 c -4.32696,2.235848 -7.31637,2.422702 -10.93772,2.424142 -4.91678,0.002 -4.78971,-1.336288 -9.7065,-1.343588 v -5.16e-4 c -4.48034,-0.007 -12.09489,2.51876 -16.92816,2.68459 -4.28586,0.147048 -17.048175,0.598114 -21.62142,-2.257743 0.03796,0.06484 0.102306,0.153101 0.162264,0.237712 0.682529,0.818114 3.383256,3.505056 3.383256,3.569807 -0.05445,0.08237 -0.841761,1.249496 -2.053622,1.433505 -0.15372,0.02593 -0.326815,0.03511 -0.528133,0.0155 -0.0449,0.1056 3.810718,3.006917 5.638416,4.879805 6.267662,4.650635 10.491949,7.678601 24.615549,7.678601 12.792,0 20.54306,-3.119831 24.22178,-7.653796 1.82583,-1.870768 3.51365,-6.428972 3.46852,-6.535002 -1.15337,0.11233 -1.96469,0.05045 -2.26084,-0.397392 0.04,-0.440596 1.98967,-3.49638 2.44791,-4.449857 0.0307,-0.08886 0.0707,-0.207066 0.0987,-0.285771 z"
           sodipodi:nodetypes="ccccsccccccscccccc" /><use
           x="0"
           y="0"
           xlink:href="#ellipse17"
           id="use28"
           transform="matrix(-0.98244547,0.18655,0.18655,0.98244547,224.06578,-98.733872)"
           style="display:inline"
           inkscape:label="eyeR" /><ellipse
           style="fill:#37321f;fill-opacity:1;stroke-width:0.206165"
           id="ellipse28"
           cx="-112.13586"
           cy="11.344284"
           rx="2.2692788"
           ry="2.8616297"
           inkscape:label="eyeL"
           transform="matrix(-0.98404097,-0.17794207,-0.17794207,0.98404097,0,0)" /><path
           id="path29"
           style="fill:#37321f;fill-opacity:1;stroke-width:0.264583"
           d="m 125.84976,38.72204 c 0,0.81946 -0.97691,2.11654 -2.182,2.11654 -1.20509,0 -2.182,-1.29708 -2.182,-2.11654 0,-0.81946 0.97691,-0.85098 2.182,-0.85098 1.20509,0 2.182,0.0315 2.182,0.85098 z"
           sodipodi:nodetypes="sssss"
           inkscape:label="nose" /></g><g
         id="g69"
         inkscape:label="v3"
         style="display:inline"><use
           x="0"
           y="0"
           xlink:href="#rect46"
           id="use56"
           transform="matrix(-1,0,0,1,422.25738,-1.4569597e-6)"
           inkscape:label="legR" /><rect
           style="display:inline;fill:#dc7c40;fill-opacity:1;stroke-width:0.188076"
           id="rect46"
           width="7.3237143"
           height="13.086371"
           x="206.67657"
           y="60.44062"
           ry="1.6442074"
           transform="matrix(0.99957616,0.02911192,-0.07302746,0.99732993,0,0)"
           inkscape:label="legL"
           rx="1.6442074" /><use
           x="0"
           y="0"
           xlink:href="#path33"
           id="use47"
           transform="matrix(-1,0,0,1,325.9003,0)"
           inkscape:label="armR" /><path
           id="path47"
           style="display:inline;fill:#dc7c40;fill-opacity:1;stroke-width:4.04728;stroke-linecap:round"
           d="m 199.99678,52.66509 c -1.49507,6.71707 -1.18725,10.50042 -1.18725,10.50042 h 9.6e-4 c -0.0283,0.28473 -0.0435,0.57364 -0.0435,0.8664 0,4.55473 2.48901,8.62363 11.65979,8.62363 8.9136,-0.0446 11.65984,-4.0689 11.65984,-8.62363 0,-0.29276 0.003,-0.41532 -0.005,-0.71148 0,0 0.22232,-5.11037 -1.22494,-10.65534 z"
           sodipodi:nodetypes="cccscsccc"
           inkscape:label="body" /><path
           id="path48"
           style="display:inline;fill:#feead7;stroke-width:0.344045"
           inkscape:label="belly"
           d="m 220.36,55.306832 c 0,5.35134 1.40498,13.791609 -6.78751,14.926247 -8.19249,1.134637 -9.05678,-7.742033 -9.05678,-13.093368 0,-5.351335 4.20017,-6.63465 8.18398,-6.634653 3.98381,-3e-6 7.66031,-0.549566 7.66031,4.801774 z"
           sodipodi:nodetypes="szszs" /><path
           id="path49"
           style="display:inline;fill:#dc7c40;fill-opacity:1;stroke-width:3.42526;stroke-linecap:round"
           d="m 200.03547,52.288339 c -1.84638,-0.696285 -3.78333,0.274921 -4.58967,2.075974 -1.06503,2.378798 -2.53216,6.714683 -2.53216,6.714683 -1.71292,4.542032 -1.84451,8.205583 0.002,8.901889 1.84639,0.696275 4.19307,0.163342 6.64525,-6.339177 0.67769,-1.797137 2.00709,-4.580104 2.55065,-6.76371 0.46403,-1.864022 -0.22959,-3.893356 -2.07596,-4.589659 z"
           sodipodi:nodetypes="sssssss"
           inkscape:label="armL" /><g
           id="g51"
           inkscape:label="earR"
           transform="matrix(-0.99303208,-0.11784444,-0.11784444,0.99303208,350.47463,-64.169803)"
           style="display:inline"><path
             style="display:inline;opacity:1;fill:#dc7c40;fill-opacity:1;stroke:none;stroke-width:0.280385px;stroke-linecap:butt;stroke-linejoin:miter;stroke-opacity:1"
             d="m 122.9435,101.89033 c -1.43364,-5.595811 -11.98998,-16.542984 -14.29857,-15.9244 -1.53358,0.410923 -2.52516,6.815607 -3.08012,21.61445 z"
             id="path50"
             sodipodi:nodetypes="cscc"
             inkscape:label="ear" /><path
             style="fill:#623925;fill-opacity:1;stroke:none;stroke-width:0.264583px;stroke-linecap:butt;stroke-linejoin:miter;stroke-opacity:1"
             d="m 108.20355,111.94162 c 0,0 1.00606,-22.89567 1.62323,-23.019103 0.80231,-0.06172 14.81159,17.751503 14.81159,17.751503 z"
             id="path51"
             sodipodi:nodetypes="cccc"
             inkscape:label="dark" /></g><g
           id="g53"
           inkscape:label="earL"
           transform="rotate(-5.1260737,-718.67513,-851.83887)"
           style="display:inline"><path
             style="display:inline;opacity:1;fill:#dc7c40;fill-opacity:1;stroke:none;stroke-width:0.280385px;stroke-linecap:butt;stroke-linejoin:miter;stroke-opacity:1"
             d="m 122.9435,101.89033 c -1.43364,-5.595811 -11.98998,-16.542984 -14.29857,-15.9244 -1.53358,0.410923 -2.52516,6.815607 -3.08012,21.61445 z"
             id="path52"
             sodipodi:nodetypes="cscc"
             inkscape:label="ear" /><path
             style="fill:#623925;fill-opacity:1;stroke:none;stroke-width:0.264583px;stroke-linecap:butt;stroke-linejoin:miter;stroke-opacity:1"
             d="m 108.20355,111.94162 c 0,0 1.00606,-22.89567 1.62323,-23.019103 0.80231,-0.06172 14.81159,17.751503 14.81159,17.751503 z"
             id="path53"
             sodipodi:nodetypes="cccc"
             inkscape:label="dark" /></g><path
           id="path54"
           style="display:inline;fill:#dc7c40;fill-opacity:1;stroke-width:0.264583"
           inkscape:label="head"
           d="m 209.56725,17.689298 c -10.39446,0.07393 -19.73438,6.402862 -23.71741,15.844512 -0.27433,0.644675 -0.79651,1.961155 -1.22319,3.63389 -1.59735,1.74361 -6.34584,1.802018 -6.40271,1.909238 -0.0849,0.133342 3.54574,3.732729 3.54574,3.807675 -0.062,0.0938 -1.07408,1.595645 -2.58152,1.448835 -0.0449,0.1056 4.98325,3.624132 6.81095,5.497022 6.26767,4.65064 10.49193,7.6786 24.61555,7.6786 12.79201,0 20.54306,-3.11983 24.22178,-7.6538 1.82583,-1.87077 4.31567,-6.984262 4.27054,-7.090292 -1.15337,0.11233 -1.96477,0.0503 -2.26092,-0.397538 0.0464,-0.510553 2.66724,-4.546464 2.54682,-4.73556 -0.0533,-0.10055 -2.04219,1.09841 -2.8496,-0.15363 -0.55817,-1.872671 -1.16237,-3.218792 -1.51511,-3.98164 -4.15116,-8.85436 -12.91124,-15.928836 -24.23883,-15.787148 z"
           sodipodi:nodetypes="cccccccscccccccc" /><path
           id="path55"
           style="display:inline;fill:#feead7;fill-opacity:1;stroke-width:0.440828"
           inkscape:label="white_fur"
           d="m 239.39288,37.631883 c -4.32696,2.235848 -8.11868,2.978152 -11.74003,2.979592 -4.91678,0.002 -4.78971,-1.336288 -9.7065,-1.343588 v -5.16e-4 c -4.48034,-0.007 -12.09489,2.51876 -16.92816,2.68459 -4.28586,0.147048 -18.221,-0.01917 -22.79425,-2.875023 0.038,0.06484 0.10231,0.153101 0.16227,0.237712 0.68252,0.818114 3.38347,3.505212 3.38347,3.569963 -0.0545,0.08237 -0.84153,1.249326 -2.05339,1.433335 -0.15372,0.02593 -0.32682,0.03511 -0.52813,0.0155 -0.0449,0.1056 4.98309,3.624211 6.81079,5.497099 6.26766,4.650635 10.49195,7.678601 24.61555,7.678601 12.792,0 20.54306,-3.119831 24.22178,-7.653796 1.82583,-1.870768 4.31583,-6.984344 4.2707,-7.090374 -1.15337,0.11233 -1.96477,0.0503 -2.26092,-0.397538 0.04,-0.440596 1.98988,-3.496312 2.44812,-4.449789 z"
           sodipodi:nodetypes="ccccsccccccsccccc" /><use
           x="0"
           y="0"
           xlink:href="#ellipse55"
           id="use57"
           transform="matrix(-1,0,0,1,428.73319,0)"
           inkscape:label="eyeR" /><ellipse
           style="fill:#37321f;fill-opacity:1;stroke-width:0.270349"
           id="ellipse55"
           cx="-206.07155"
           cy="-12.658012"
           rx="2.7345412"
           ry="4.083518"
           inkscape:label="eyeL"
           transform="matrix(-0.97732646,-0.21173804,-0.14923844,0.98880124,0,0)" /><path
           id="path56"
           style="fill:#37321f;fill-opacity:1;stroke-width:0.377305"
           d="m 221.37844,38.452452 c 0,1.16858 -1.39312,3.018265 -3.11162,3.018265 -1.7185,0 -3.11162,-1.849685 -3.11162,-3.018265 0,-1.168581 1.39312,-1.213529 3.11162,-1.213529 1.7185,0 3.11162,0.04492 3.11162,1.213529 z"
           sodipodi:nodetypes="sssss"
           inkscape:label="nose" /></g></g><g
       id="g20"
       inkscape:label="earL"
       style="display:none"><path
         style="display:inline;fill:url(#linearGradient13);fill-opacity:1;stroke:none;stroke-width:0.982474px;stroke-linecap:butt;stroke-linejoin:miter;stroke-opacity:1"
         d="M 112.07791,60.676094 C 105.3226,41.595539 59.005467,0.52318653 51.142146,3.4048086 45.918598,5.3190568 44.339698,36.745563 47.036039,88.567302 Z"
         id="path75"
         sodipodi:nodetypes="cscc"
         inkscape:label="ear" /><path
         style="fill:url(#linearGradient15);fill-opacity:1;stroke:none;stroke-width:0.927103px;stroke-linecap:butt;stroke-linejoin:miter;stroke-opacity:1"
         d="m 57.732851,83.980303 c 0,0 -6.12434,-68.521816 -1.540412,-70.627007 4.755656,-0.960317 47.363971,50.976982 47.363971,50.976982 z"
         id="path76"
         sodipodi:nodetypes="cccc"
         inkscape:label="dark" /></g><path
       id="path77"
       style="display:none;fill:url(#linearGradient23);fill-opacity:1;stroke-width:0.927103"
       inkscape:label="head"
       d="m 122.76639,36.318521 c -36.422359,0.259052 -69.149594,22.435735 -83.106198,55.519425 -0.961255,2.258968 -2.790983,6.871929 -4.286076,12.733194 -5.597141,6.10965 -22.23593,6.31432 -22.435201,6.69002 -0.297492,0.46723 12.42433,13.07956 12.42433,13.34217 -0.217249,0.32869 -3.763593,5.59116 -9.04569,5.07674 -0.15733,0.37001 17.461392,12.699 23.865683,19.26164 21.962019,16.29593 36.763897,26.90595 86.253302,26.90595 44.82341,0 71.9832,-10.93194 84.87351,-26.81905 6.39773,-6.5552 15.12218,-24.47297 14.96404,-24.8445 -4.04142,0.39362 -6.88458,0.17626 -7.92231,-1.39299 0.1626,-1.78898 9.34606,-15.93087 8.92411,-16.59346 -0.18676,-0.35235 -7.15588,3.84884 -9.98506,-0.53833 C 215.335,99.097467 213.21788,94.380632 211.98188,91.70759 197.43614,60.681766 166.74067,35.892699 127.04862,36.389177 Z"
       sodipodi:nodetypes="cccccccscccccccc" /><path
       id="path78"
       style="display:none;fill:#feead7;fill-opacity:1;stroke-width:1.54468"
       inkscape:label="white_fur"
       d="m 227.27589,106.19769 c -15.16174,7.83445 -28.448,10.43547 -41.13726,10.44053 -17.22849,0.007 -16.78322,-4.68239 -34.01174,-4.70796 v -0.001 c -15.69918,-0.0245 -42.38069,8.82579 -59.316555,9.40686 -15.017717,0.51524 -63.846678,-0.0673 -79.87142,-10.07414 0.13315,0.22706 0.358494,0.53646 0.568595,0.83293 2.391562,2.86672 11.855735,12.28234 11.855735,12.50924 -0.19097,0.28873 -2.948736,4.37764 -7.195113,5.0224 -0.538637,0.0909 -1.145182,0.123 -1.850577,0.0543 -0.15733,0.37002 17.460831,12.69929 23.865122,19.26193 21.961985,16.29592 36.763966,26.90594 86.253283,26.90594 44.82338,0 71.98324,-10.93193 84.87353,-26.81901 6.39772,-6.55521 15.12274,-24.47328 14.9646,-24.8448 -4.04142,0.39359 -6.88458,0.17625 -7.92231,-1.39299 0.14016,-1.54383 6.97258,-12.25113 8.57826,-15.59211 z"
       sodipodi:nodetypes="ccccsccccccsccccc" /><ellipse
       style="display:inline;fill:#37321f;fill-opacity:1;stroke-width:0.947307"
       id="ellipse78"
       cx="-112.30479"
       cy="60.264843"
       rx="9.5818768"
       ry="14.308714"
       inkscape:label="eyeL"
       transform="matrix(-0.97732646,-0.21173804,-0.14923844,0.98880124,0,0)" /><rect
       style="display:none;opacity:0;fill:#4f6781;fill-opacity:1;stroke-width:0.674304;stroke-dasharray:none"
       id="rect26"
       width="238.44882"
       height="168.62485"
       x="3.4911993"
       y="20.598068"
       rx="1.6466181"
       ry="1.718944"
       inkscape:label="export_head"
       inkscape:export-filename="exported\fox_with_shadows\head.svg"
       inkscape:export-xdpi="96"
       inkscape:export-ydpi="96" /><rect
       style="display:none;opacity:0;fill:#4f6781;fill-opacity:1;stroke-width:0.229133;stroke-dasharray:none"
       id="rect27"
       width="62.143314"
       height="74.711617"
       x="70.871323"
       y="47.131172"
       rx="0.42913327"
       ry="0.7616024"
       inkscape:label="export_eye"
       inkscape:export-filename="exported\fox_with_shadows\ear.svg"
       inkscape:export-xdpi="96"
       inkscape:export-ydpi="96" /><rect
       style="display:none;opacity:0;fill:#4f6781;fill-opacity:1;stroke-width:0.389373;stroke-dasharray:none"
       id="rect1"
       width="110.67097"
       height="121.14455"
       x="16.757751"
       y="-22.692787"
       rx="0.76424301"
       ry="1.2349348"
       inkscape:label="export_ear"
       inkscape:export-filename="exported\fox_with_shadows\ear.svg"
       inkscape:export-xdpi="96"
       inkscape:export-ydpi="96" /></g></svg>
