<?xml version="1.0" standalone="no"?>
<!DOCTYPE svg PUBLIC "-//W3C//DTD SVG 20010904//EN"
 "http://www.w3.org/TR/2001/REC-SVG-20010904/DTD/svg10.dtd">
<svg version="1.0" xmlns="http://www.w3.org/2000/svg"
 width="1536.000000pt" height="1536.000000pt" viewBox="0 0 1536.000000 1536.000000"
 preserveAspectRatio="xMidYMid meet">

<g transform="translate(0.000000,1536.000000) scale(0.100000,-0.100000)"
fill="#000000" stroke="none">
<path d="M1180 15353 c-147 -12 -328 -62 -462 -128 -364 -180 -611 -507 -695
-921 -17 -85 -18 -363 -18 -6624 0 -6261 1 -6539 18 -6624 56 -277 167 -486
357 -676 190 -190 399 -301 676 -357 85 -17 363 -18 6624 -18 6261 0 6539 1
6624 18 277 56 486 167 676 357 190 190 301 399 357 676 17 85 18 363 18 6624
0 6261 -1 6539 -18 6624 -56 276 -168 487 -357 676 -184 185 -377 289 -652
353 l-93 22 -6505 1 c-3578 0 -6525 -1 -6550 -3z m1520 -832 c0 -158 1 -170
23 -202 12 -18 38 -44 56 -56 l34 -23 1007 0 1007 0 34 23 c18 12 44 38 56 56
22 32 23 44 23 202 l0 169 160 0 160 0 0 -169 c0 -158 1 -170 23 -202 12 -18
38 -44 56 -56 l34 -23 1007 0 1007 0 34 23 c18 12 44 38 56 56 22 32 23 44 23
202 l0 169 160 0 160 0 0 -169 c0 -158 1 -170 23 -202 12 -18 38 -44 56 -56
l34 -23 1007 0 1007 0 34 23 c18 12 44 38 56 56 22 32 23 44 23 202 l0 169
160 0 160 0 0 -169 c0 -158 1 -170 23 -202 12 -18 38 -44 56 -56 l34 -23 1007
0 1007 0 34 23 c18 12 44 38 56 56 22 32 23 44 23 202 l0 169 753 0 c413 0
780 -4 814 -9 100 -15 224 -81 314 -169 63 -60 85 -91 124 -168 30 -61 50
-116 56 -157 5 -34 9 -396 9 -804 l0 -743 -824 -2 c-815 -3 -825 -3 -852 -24
-15 -11 -37 -33 -48 -48 -20 -27 -21 -39 -21 -406 0 -367 1 -379 21 -406 11
-15 33 -37 48 -48 27 -21 37 -21 852 -24 l824 -2 0 -800 0 -800 -824 -2 c-815
-3 -825 -3 -852 -24 -15 -11 -37 -33 -48 -48 -20 -27 -21 -39 -21 -406 0 -367
1 -379 21 -406 11 -15 33 -37 48 -48 27 -21 37 -21 852 -24 l824 -2 0 -800 0
-800 -824 -2 c-815 -3 -825 -3 -852 -24 -15 -11 -37 -33 -48 -48 -20 -27 -21
-39 -21 -406 0 -367 1 -379 21 -406 11 -15 33 -37 48 -48 27 -21 37 -21 852
-24 l824 -2 0 -800 0 -800 -824 -2 c-815 -3 -825 -3 -852 -24 -15 -11 -37 -33
-48 -48 -20 -27 -21 -39 -21 -406 0 -367 1 -379 21 -406 11 -15 33 -37 48 -48
27 -21 37 -21 852 -24 l824 -2 0 -800 0 -800 -824 -2 c-815 -3 -825 -3 -852
-24 -15 -11 -37 -33 -48 -48 -20 -27 -21 -39 -21 -406 0 -367 1 -379 21 -406
11 -15 33 -37 48 -48 27 -21 37 -21 852 -24 l824 -2 0 -103 c0 -150 -12 -212
-60 -313 -62 -129 -159 -227 -287 -290 -108 -52 -165 -64 -330 -64 l-113 0 0
169 c0 158 -1 170 -23 202 -12 18 -38 44 -56 56 l-34 23 -1007 0 -1007 0 -34
-23 c-18 -12 -44 -38 -56 -56 -22 -32 -23 -44 -23 -202 l0 -169 -80 0 -80 0 0
169 c0 158 -1 170 -23 202 -12 18 -38 44 -56 56 l-34 23 -1007 0 -1007 0 -34
-23 c-18 -12 -44 -38 -56 -56 -22 -32 -23 -44 -23 -202 l0 -169 -160 0 -160 0
0 169 c0 158 -1 170 -23 202 -12 18 -38 44 -56 56 l-34 23 -1007 0 -1007 0
-34 -23 c-18 -12 -44 -38 -56 -56 -22 -32 -23 -44 -23 -202 l0 -169 -160 0
-160 0 0 169 c0 158 -1 170 -23 202 -12 18 -38 44 -56 56 l-34 23 -1007 0
-1007 0 -34 -23 c-18 -12 -44 -38 -56 -56 -22 -32 -23 -44 -23 -202 l0 -169
-160 0 -160 0 0 169 c0 158 -1 170 -23 202 -12 18 -38 44 -56 56 l-34 23
-1007 0 -1007 0 -34 -23 c-18 -12 -44 -38 -56 -56 -22 -32 -23 -44 -23 -202
l0 -169 -172 0 c-229 0 -277 8 -391 64 -128 63 -225 161 -287 290 -48 101 -60
163 -60 313 l0 103 804 2 c795 3 805 3 832 24 15 11 37 33 48 48 20 27 21 39
21 406 0 367 -1 379 -21 406 -11 15 -33 37 -48 48 -27 21 -37 21 -832 24
l-804 2 0 800 0 800 804 2 c795 3 805 3 832 24 15 11 37 33 48 48 20 27 21 39
21 406 0 367 -1 379 -21 406 -11 15 -33 37 -48 48 -27 21 -37 21 -832 24
l-804 2 0 800 0 800 804 2 c795 3 805 3 832 24 15 11 37 33 48 48 20 27 21 39
21 406 0 367 -1 379 -21 406 -11 15 -33 37 -48 48 -27 21 -37 21 -832 24
l-804 2 0 800 0 800 804 2 c795 3 805 3 832 24 15 11 37 33 48 48 20 27 21 39
21 406 0 367 -1 379 -21 406 -11 15 -33 37 -48 48 -27 21 -37 21 -832 24
l-804 2 0 800 0 800 804 2 c795 3 805 3 832 24 15 11 37 33 48 48 20 27 21 39
21 406 0 367 -1 379 -21 406 -11 15 -33 37 -48 48 -27 21 -37 21 -832 24
l-804 2 0 743 c0 408 4 770 9 804 15 100 81 224 169 314 60 63 90 85 169 124
52 26 118 51 147 55 28 4 385 8 794 9 l742 1 0 -169z"/>
<path d="M1515 13906 c-41 -18 -83 -69 -90 -109 -3 -18 -5 -190 -3 -384 3
-337 4 -353 24 -379 11 -15 33 -37 48 -48 27 -21 33 -21 1046 -21 1013 0 1019
0 1046 21 15 11 37 33 48 48 20 27 21 39 21 406 0 367 -1 379 -21 406 -11 15
-33 37 -48 48 -27 21 -35 21 -1034 23 -822 2 -1013 0 -1037 -11z"/>
<path d="M4075 13906 c-41 -18 -83 -69 -90 -109 -3 -18 -5 -190 -3 -384 3
-337 4 -353 24 -379 11 -15 33 -37 48 -48 27 -21 33 -21 1046 -21 1013 0 1019
0 1046 21 15 11 37 33 48 48 20 27 21 39 21 406 0 367 -1 379 -21 406 -11 15
-33 37 -48 48 -27 21 -35 21 -1034 23 -822 2 -1013 0 -1037 -11z"/>
<path d="M6635 13906 c-41 -18 -83 -69 -90 -109 -3 -18 -5 -190 -3 -384 3
-337 4 -353 24 -379 11 -15 33 -37 48 -48 27 -21 33 -21 1046 -21 1013 0 1019
0 1046 21 15 11 37 33 48 48 20 27 21 39 21 406 0 367 -1 379 -21 406 -11 15
-33 37 -48 48 -27 21 -35 21 -1034 23 -822 2 -1013 0 -1037 -11z"/>
<path d="M9195 13906 c-41 -18 -83 -69 -90 -109 -3 -18 -5 -190 -3 -384 3
-337 4 -353 24 -379 11 -15 33 -37 48 -48 27 -21 33 -21 1046 -21 1013 0 1019
0 1046 21 15 11 37 33 48 48 20 27 21 39 21 406 0 367 -1 379 -21 406 -11 15
-33 37 -48 48 -27 21 -35 21 -1034 23 -822 2 -1013 0 -1037 -11z"/>
<path d="M11755 13906 c-41 -18 -83 -69 -90 -109 -3 -18 -5 -190 -3 -384 3
-337 4 -353 24 -379 11 -15 33 -37 48 -48 27 -21 33 -21 1046 -21 1013 0 1019
0 1046 21 15 11 37 33 48 48 20 27 21 39 21 406 0 367 -1 379 -21 406 -11 15
-33 37 -48 48 -27 21 -35 21 -1034 23 -822 2 -1013 0 -1037 -11z"/>
<path d="M2795 12626 c-41 -18 -83 -69 -90 -109 -3 -18 -5 -190 -3 -384 3
-337 4 -353 24 -379 11 -15 33 -37 48 -48 27 -21 33 -21 1046 -21 1013 0 1019
0 1046 21 15 11 37 33 48 48 20 27 21 39 21 406 0 367 -1 379 -21 406 -11 15
-33 37 -48 48 -27 21 -35 21 -1034 23 -822 2 -1013 0 -1037 -11z"/>
<path d="M5355 12626 c-41 -18 -83 -69 -90 -109 -3 -18 -5 -190 -3 -384 3
-337 4 -353 24 -379 11 -15 33 -37 48 -48 27 -21 33 -21 1046 -21 1013 0 1019
0 1046 21 15 11 37 33 48 48 20 27 21 39 21 406 0 367 -1 379 -21 406 -11 15
-33 37 -48 48 -27 21 -35 21 -1034 23 -822 2 -1013 0 -1037 -11z"/>
<path d="M7915 12626 c-41 -18 -83 -69 -90 -109 -3 -18 -5 -190 -3 -384 3
-337 4 -353 24 -379 11 -15 33 -37 48 -48 27 -21 33 -21 1046 -21 1013 0 1019
0 1046 21 15 11 37 33 48 48 20 27 21 39 21 406 0 367 -1 379 -21 406 -11 15
-33 37 -48 48 -27 21 -35 21 -1034 23 -822 2 -1013 0 -1037 -11z"/>
<path d="M10475 12626 c-41 -18 -83 -69 -90 -109 -3 -18 -5 -190 -3 -384 3
-337 4 -353 24 -379 11 -15 33 -37 48 -48 27 -21 33 -21 1046 -21 1013 0 1019
0 1046 21 15 11 37 33 48 48 20 27 21 39 21 406 0 367 -1 379 -21 406 -11 15
-33 37 -48 48 -27 21 -35 21 -1034 23 -822 2 -1013 0 -1037 -11z"/>
<path d="M1675 11346 c-41 -18 -83 -69 -90 -109 -3 -18 -5 -190 -3 -384 3
-337 4 -353 24 -379 11 -15 33 -37 48 -48 27 -21 33 -21 1046 -21 1013 0 1019
0 1046 21 15 11 37 33 48 48 20 27 21 39 21 406 0 367 -1 379 -21 406 -11 15
-33 37 -48 48 -27 21 -35 21 -1034 23 -822 2 -1013 0 -1037 -11z"/>
<path d="M4235 11346 c-41 -18 -83 -69 -90 -109 -3 -18 -5 -190 -3 -384 3
-337 4 -353 24 -379 11 -15 33 -37 48 -48 27 -21 33 -21 1046 -21 1013 0 1019
0 1046 21 15 11 37 33 48 48 20 27 21 39 21 406 0 367 -1 379 -21 406 -11 15
-33 37 -48 48 -27 21 -35 21 -1034 23 -822 2 -1013 0 -1037 -11z"/>
<path d="M6795 11346 c-41 -18 -83 -69 -90 -109 -3 -18 -5 -190 -3 -384 3
-337 4 -353 24 -379 11 -15 33 -37 48 -48 27 -21 33 -21 1046 -21 1013 0 1019
0 1046 21 15 11 37 33 48 48 20 27 21 39 21 406 0 367 -1 379 -21 406 -11 15
-33 37 -48 48 -27 21 -35 21 -1034 23 -822 2 -1013 0 -1037 -11z"/>
<path d="M9355 11346 c-41 -18 -83 -69 -90 -109 -3 -18 -5 -190 -3 -384 3
-337 4 -353 24 -379 11 -15 33 -37 48 -48 27 -21 33 -21 1046 -21 1013 0 1019
0 1046 21 15 11 37 33 48 48 20 27 21 39 21 406 0 367 -1 379 -21 406 -11 15
-33 37 -48 48 -27 21 -35 21 -1034 23 -822 2 -1013 0 -1037 -11z"/>
<path d="M11755 11346 c-41 -18 -83 -69 -90 -109 -3 -18 -5 -190 -3 -384 3
-337 4 -353 24 -379 11 -15 33 -37 48 -48 27 -21 33 -21 1046 -21 1013 0 1019
0 1046 21 15 11 37 33 48 48 20 27 21 39 21 406 0 367 -1 379 -21 406 -11 15
-33 37 -48 48 -27 21 -35 21 -1034 23 -822 2 -1013 0 -1037 -11z"/>
<path d="M2795 10066 c-41 -18 -83 -69 -90 -109 -3 -18 -5 -190 -3 -384 3
-337 4 -353 24 -379 11 -15 33 -37 48 -48 27 -21 33 -21 1046 -21 1013 0 1019
0 1046 21 15 11 37 33 48 48 20 27 21 39 21 406 0 367 -1 379 -21 406 -11 15
-33 37 -48 48 -27 21 -35 21 -1034 23 -822 2 -1013 0 -1037 -11z"/>
<path d="M5355 10066 c-41 -18 -83 -69 -90 -109 -3 -18 -5 -190 -3 -384 3
-337 4 -353 24 -379 11 -15 33 -37 48 -48 27 -21 33 -21 1046 -21 1013 0 1019
0 1046 21 15 11 37 33 48 48 20 27 21 39 21 406 0 367 -1 379 -21 406 -11 15
-33 37 -48 48 -27 21 -35 21 -1034 23 -822 2 -1013 0 -1037 -11z"/>
<path d="M7915 10066 c-41 -18 -83 -69 -90 -109 -3 -18 -5 -190 -3 -384 3
-337 4 -353 24 -379 11 -15 33 -37 48 -48 27 -21 33 -21 1046 -21 1013 0 1019
0 1046 21 15 11 37 33 48 48 20 27 21 39 21 406 0 367 -1 379 -21 406 -11 15
-33 37 -48 48 -27 21 -35 21 -1034 23 -822 2 -1013 0 -1037 -11z"/>
<path d="M10475 10066 c-41 -18 -83 -69 -90 -109 -3 -18 -5 -190 -3 -384 3
-337 4 -353 24 -379 11 -15 33 -37 48 -48 27 -21 33 -21 1046 -21 1013 0 1019
0 1046 21 15 11 37 33 48 48 20 27 21 39 21 406 0 367 -1 379 -21 406 -11 15
-33 37 -48 48 -27 21 -35 21 -1034 23 -822 2 -1013 0 -1037 -11z"/>
<path d="M1515 8786 c-41 -18 -83 -69 -90 -109 -3 -18 -5 -190 -3 -384 3 -337
4 -353 24 -379 11 -15 33 -37 48 -48 27 -21 33 -21 1046 -21 1013 0 1019 0
1046 21 15 11 37 33 48 48 20 27 21 39 21 406 0 367 -1 379 -21 406 -11 15
-33 37 -48 48 -27 21 -35 21 -1034 23 -822 2 -1013 0 -1037 -11z"/>
<path d="M4075 8786 c-41 -18 -83 -69 -90 -109 -3 -18 -5 -190 -3 -384 3 -337
4 -353 24 -379 11 -15 33 -37 48 -48 27 -21 33 -21 1046 -21 1013 0 1019 0
1046 21 15 11 37 33 48 48 20 27 21 39 21 406 0 367 -1 379 -21 406 -11 15
-33 37 -48 48 -27 21 -35 21 -1034 23 -822 2 -1013 0 -1037 -11z"/>
<path d="M6635 8786 c-41 -18 -83 -69 -90 -109 -3 -18 -5 -190 -3 -384 3 -337
4 -353 24 -379 11 -15 33 -37 48 -48 27 -21 33 -21 1046 -21 1013 0 1019 0
1046 21 15 11 37 33 48 48 20 27 21 39 21 406 0 367 -1 379 -21 406 -11 15
-33 37 -48 48 -27 21 -35 21 -1034 23 -822 2 -1013 0 -1037 -11z"/>
<path d="M9195 8786 c-41 -18 -83 -69 -90 -109 -3 -18 -5 -190 -3 -384 3 -337
4 -353 24 -379 11 -15 33 -37 48 -48 27 -21 33 -21 1046 -21 1013 0 1019 0
1046 21 15 11 37 33 48 48 20 27 21 39 21 406 0 367 -1 379 -21 406 -11 15
-33 37 -48 48 -27 21 -35 21 -1034 23 -822 2 -1013 0 -1037 -11z"/>
<path d="M11755 8786 c-41 -18 -83 -69 -90 -109 -3 -18 -5 -190 -3 -384 3
-337 4 -353 24 -379 11 -15 33 -37 48 -48 27 -21 33 -21 1046 -21 1013 0 1019
0 1046 21 15 11 37 33 48 48 20 27 21 39 21 406 0 367 -1 379 -21 406 -11 15
-33 37 -48 48 -27 21 -35 21 -1034 23 -822 2 -1013 0 -1037 -11z"/>
<path d="M2795 7506 c-41 -18 -83 -69 -90 -109 -3 -18 -5 -190 -3 -384 3 -337
4 -353 24 -379 11 -15 33 -37 48 -48 27 -21 33 -21 1046 -21 1013 0 1019 0
1046 21 15 11 37 33 48 48 20 27 21 39 21 406 0 367 -1 379 -21 406 -11 15
-33 37 -48 48 -27 21 -35 21 -1034 23 -822 2 -1013 0 -1037 -11z"/>
<path d="M5355 7506 c-41 -18 -83 -69 -90 -109 -3 -18 -5 -190 -3 -384 3 -337
4 -353 24 -379 11 -15 33 -37 48 -48 27 -21 33 -21 1046 -21 1013 0 1019 0
1046 21 15 11 37 33 48 48 20 27 21 39 21 406 0 367 -1 379 -21 406 -11 15
-33 37 -48 48 -27 21 -35 21 -1034 23 -822 2 -1013 0 -1037 -11z"/>
<path d="M7915 7506 c-41 -18 -83 -69 -90 -109 -3 -18 -5 -190 -3 -384 3 -337
4 -353 24 -379 11 -15 33 -37 48 -48 27 -21 33 -21 1046 -21 1013 0 1019 0
1046 21 15 11 37 33 48 48 20 27 21 39 21 406 0 367 -1 379 -21 406 -11 15
-33 37 -48 48 -27 21 -35 21 -1034 23 -822 2 -1013 0 -1037 -11z"/>
<path d="M10475 7506 c-41 -18 -83 -69 -90 -109 -3 -18 -5 -190 -3 -384 3
-337 4 -353 24 -379 11 -15 33 -37 48 -48 27 -21 33 -21 1046 -21 1013 0 1019
0 1046 21 15 11 37 33 48 48 20 27 21 39 21 406 0 367 -1 379 -21 406 -11 15
-33 37 -48 48 -27 21 -35 21 -1034 23 -822 2 -1013 0 -1037 -11z"/>
<path d="M1675 6226 c-41 -18 -83 -69 -90 -109 -3 -18 -5 -190 -3 -384 3 -337
4 -353 24 -379 11 -15 33 -37 48 -48 27 -21 33 -21 1046 -21 1013 0 1019 0
1046 21 15 11 37 33 48 48 20 27 21 39 21 406 0 367 -1 379 -21 406 -11 15
-33 37 -48 48 -27 21 -35 21 -1034 23 -822 2 -1013 0 -1037 -11z"/>
<path d="M4235 6226 c-41 -18 -83 -69 -90 -109 -3 -18 -5 -190 -3 -384 3 -337
4 -353 24 -379 11 -15 33 -37 48 -48 27 -21 33 -21 1046 -21 1013 0 1019 0
1046 21 15 11 37 33 48 48 20 27 21 39 21 406 0 367 -1 379 -21 406 -11 15
-33 37 -48 48 -27 21 -35 21 -1034 23 -822 2 -1013 0 -1037 -11z"/>
<path d="M6795 6226 c-41 -18 -83 -69 -90 -109 -3 -18 -5 -190 -3 -384 3 -337
4 -353 24 -379 11 -15 33 -37 48 -48 27 -21 33 -21 1046 -21 1013 0 1019 0
1046 21 15 11 37 33 48 48 20 27 21 39 21 406 0 367 -1 379 -21 406 -11 15
-33 37 -48 48 -27 21 -35 21 -1034 23 -822 2 -1013 0 -1037 -11z"/>
<path d="M9355 6226 c-41 -18 -83 -69 -90 -109 -3 -18 -5 -190 -3 -384 3 -337
4 -353 24 -379 11 -15 33 -37 48 -48 27 -21 33 -21 1046 -21 1013 0 1019 0
1046 21 15 11 37 33 48 48 20 27 21 39 21 406 0 367 -1 379 -21 406 -11 15
-33 37 -48 48 -27 21 -35 21 -1034 23 -822 2 -1013 0 -1037 -11z"/>
<path d="M11755 6226 c-41 -18 -83 -69 -90 -109 -3 -18 -5 -190 -3 -384 3
-337 4 -353 24 -379 11 -15 33 -37 48 -48 27 -21 33 -21 1046 -21 1013 0 1019
0 1046 21 15 11 37 33 48 48 20 27 21 39 21 406 0 367 -1 379 -21 406 -11 15
-33 37 -48 48 -27 21 -35 21 -1034 23 -822 2 -1013 0 -1037 -11z"/>
<path d="M2795 4946 c-41 -18 -83 -69 -90 -109 -3 -18 -5 -190 -3 -384 3 -337
4 -353 24 -379 11 -15 33 -37 48 -48 27 -21 33 -21 1046 -21 1013 0 1019 0
1046 21 15 11 37 33 48 48 20 27 21 39 21 406 0 367 -1 379 -21 406 -11 15
-33 37 -48 48 -27 21 -35 21 -1034 23 -822 2 -1013 0 -1037 -11z"/>
<path d="M5355 4946 c-41 -18 -83 -69 -90 -109 -3 -18 -5 -190 -3 -384 3 -337
4 -353 24 -379 11 -15 33 -37 48 -48 27 -21 33 -21 1046 -21 1013 0 1019 0
1046 21 15 11 37 33 48 48 20 27 21 39 21 406 0 367 -1 379 -21 406 -11 15
-33 37 -48 48 -27 21 -35 21 -1034 23 -822 2 -1013 0 -1037 -11z"/>
<path d="M7915 4946 c-41 -18 -83 -69 -90 -109 -3 -18 -5 -190 -3 -384 3 -337
4 -353 24 -379 11 -15 33 -37 48 -48 27 -21 33 -21 1046 -21 1013 0 1019 0
1046 21 15 11 37 33 48 48 20 27 21 39 21 406 0 367 -1 379 -21 406 -11 15
-33 37 -48 48 -27 21 -35 21 -1034 23 -822 2 -1013 0 -1037 -11z"/>
<path d="M10475 4946 c-41 -18 -83 -69 -90 -109 -3 -18 -5 -190 -3 -384 3
-337 4 -353 24 -379 11 -15 33 -37 48 -48 27 -21 33 -21 1046 -21 1013 0 1019
0 1046 21 15 11 37 33 48 48 20 27 21 39 21 406 0 367 -1 379 -21 406 -11 15
-33 37 -48 48 -27 21 -35 21 -1034 23 -822 2 -1013 0 -1037 -11z"/>
<path d="M1515 3666 c-41 -18 -83 -69 -90 -109 -3 -18 -5 -190 -3 -384 3 -337
4 -353 24 -379 11 -15 33 -37 48 -48 27 -21 33 -21 1046 -21 1013 0 1019 0
1046 21 15 11 37 33 48 48 20 27 21 39 21 406 0 367 -1 379 -21 406 -11 15
-33 37 -48 48 -27 21 -35 21 -1034 23 -822 2 -1013 0 -1037 -11z"/>
<path d="M4075 3666 c-41 -18 -83 -69 -90 -109 -3 -18 -5 -190 -3 -384 3 -337
4 -353 24 -379 11 -15 33 -37 48 -48 27 -21 33 -21 1046 -21 1013 0 1019 0
1046 21 15 11 37 33 48 48 20 27 21 39 21 406 0 367 -1 379 -21 406 -11 15
-33 37 -48 48 -27 21 -35 21 -1034 23 -822 2 -1013 0 -1037 -11z"/>
<path d="M6635 3666 c-41 -18 -83 -69 -90 -109 -3 -18 -5 -190 -3 -384 3 -337
4 -353 24 -379 11 -15 33 -37 48 -48 27 -21 33 -21 1046 -21 1013 0 1019 0
1046 21 15 11 37 33 48 48 20 27 21 39 21 406 0 367 -1 379 -21 406 -11 15
-33 37 -48 48 -27 21 -35 21 -1034 23 -822 2 -1013 0 -1037 -11z"/>
<path d="M9195 3666 c-41 -18 -83 -69 -90 -109 -3 -18 -5 -190 -3 -384 3 -337
4 -353 24 -379 11 -15 33 -37 48 -48 27 -21 33 -21 1046 -21 1013 0 1019 0
1046 21 15 11 37 33 48 48 20 27 21 39 21 406 0 367 -1 379 -21 406 -11 15
-33 37 -48 48 -27 21 -35 21 -1034 23 -822 2 -1013 0 -1037 -11z"/>
<path d="M11755 3666 c-41 -18 -83 -69 -90 -109 -3 -18 -5 -190 -3 -384 3
-337 4 -353 24 -379 11 -15 33 -37 48 -48 27 -21 33 -21 1046 -21 1013 0 1019
0 1046 21 15 11 37 33 48 48 20 27 21 39 21 406 0 367 -1 379 -21 406 -11 15
-33 37 -48 48 -27 21 -35 21 -1034 23 -822 2 -1013 0 -1037 -11z"/>
<path d="M2795 2386 c-41 -18 -83 -69 -90 -109 -3 -18 -5 -190 -3 -384 3 -337
4 -353 24 -379 11 -15 33 -37 48 -48 27 -21 33 -21 1046 -21 1013 0 1019 0
1046 21 15 11 37 33 48 48 20 27 21 39 21 406 0 367 -1 379 -21 406 -11 15
-33 37 -48 48 -27 21 -35 21 -1034 23 -822 2 -1013 0 -1037 -11z"/>
<path d="M5355 2386 c-41 -18 -83 -69 -90 -109 -3 -18 -5 -190 -3 -384 3 -337
4 -353 24 -379 11 -15 33 -37 48 -48 27 -21 33 -21 1046 -21 1013 0 1019 0
1046 21 15 11 37 33 48 48 20 27 21 39 21 406 0 367 -1 379 -21 406 -11 15
-33 37 -48 48 -27 21 -35 21 -1034 23 -822 2 -1013 0 -1037 -11z"/>
<path d="M7915 2386 c-41 -18 -83 -69 -90 -109 -3 -18 -5 -190 -3 -384 3 -337
4 -353 24 -379 11 -15 33 -37 48 -48 27 -21 33 -21 1046 -21 1013 0 1019 0
1046 21 15 11 37 33 48 48 20 27 21 39 21 406 0 367 -1 379 -21 406 -11 15
-33 37 -48 48 -27 21 -35 21 -1034 23 -822 2 -1013 0 -1037 -11z"/>
<path d="M10475 2386 c-41 -18 -83 -69 -90 -109 -3 -18 -5 -190 -3 -384 3
-337 4 -353 24 -379 11 -15 33 -37 48 -48 27 -21 33 -21 1046 -21 1013 0 1019
0 1046 21 15 11 37 33 48 48 20 27 21 39 21 406 0 367 -1 379 -21 406 -11 15
-33 37 -48 48 -27 21 -35 21 -1034 23 -822 2 -1013 0 -1037 -11z"/>
</g>
</svg>
