<?xml version="1.0" standalone="no"?>
<!DOCTYPE svg PUBLIC "-//W3C//DTD SVG 20010904//EN"
 "http://www.w3.org/TR/2001/REC-SVG-20010904/DTD/svg10.dtd">
<svg version="1.0" xmlns="http://www.w3.org/2000/svg"
 width="512.000000pt" height="512.000000pt" viewBox="0 0 512.000000 512.000000"
 preserveAspectRatio="xMidYMid meet">

<g transform="translate(0.000000,512.000000) scale(0.100000,-0.100000)"
fill="#000000" stroke="none">
<path d="M3752 4557 l-83 -83 45 -95 c99 -209 126 -371 126 -757 l0 -267 93
92 92 92 135 3 135 3 3 135 3 135 92 93 92 92 -92 93 -92 92 -3 135 -3 135
-135 3 -136 3 -89 89 c-49 50 -92 90 -95 90 -3 0 -43 -37 -88 -83z"/>
<path d="M1067 1893 c-4 -3 -7 -65 -7 -137 l0 -131 -92 -92 -93 -93 92 -92 92
-93 3 -135 3 -135 108 -3 107 -3 0 461 0 460 -103 0 c-57 0 -107 -3 -110 -7z"/>
</g>
</svg>
