<?xml version="1.0" encoding="UTF-8" standalone="no"?>
<!-- Created with Inkscape (http://www.inkscape.org/) -->

<svg
   width="128mm"
   height="32mm"
   viewBox="0 0 128 32"
   version="1.1"
   id="svg1"
   inkscape:version="1.3.2 (091e20e, 2023-11-25, custom)"
   sodipodi:docname="crumbling_block.svg"
   inkscape:export-filename="..\assets\sprites\crumbling_block.png"
   inkscape:export-xdpi="101.6"
   inkscape:export-ydpi="101.6"
   xml:space="preserve"
   xmlns:inkscape="http://www.inkscape.org/namespaces/inkscape"
   xmlns:sodipodi="http://sodipodi.sourceforge.net/DTD/sodipodi-0.dtd"
   xmlns:xlink="http://www.w3.org/1999/xlink"
   xmlns="http://www.w3.org/2000/svg"
   xmlns:svg="http://www.w3.org/2000/svg"><sodipodi:namedview
     id="namedview1"
     pagecolor="#ffffff"
     bordercolor="#999999"
     borderopacity="1"
     inkscape:showpageshadow="0"
     inkscape:pageopacity="0"
     inkscape:pagecheckerboard="0"
     inkscape:deskcolor="#d1d1d1"
     inkscape:document-units="mm"
     showgrid="true"
     inkscape:zoom="1.0141844"
     inkscape:cx="-79.374129"
     inkscape:cy="-12.325175"
     inkscape:window-width="2560"
     inkscape:window-height="1017"
     inkscape:window-x="1912"
     inkscape:window-y="-8"
     inkscape:window-maximized="1"
     inkscape:current-layer="layer1"><inkscape:grid
       id="grid1"
       units="mm"
       originx="0"
       originy="0"
       spacingx="31.999999"
       spacingy="31.999999"
       empcolor="#0099e5"
       empopacity="0.30196078"
       color="#0099e5"
       opacity="0.14901961"
       empspacing="5"
       dotted="false"
       gridanglex="30"
       gridanglez="30"
       visible="true" /></sodipodi:namedview><defs
     id="defs1"><linearGradient
       id="linearGradient6"
       inkscape:collect="always"><stop
         style="stop-color:#ffffec;stop-opacity:0.27628365;"
         offset="0"
         id="stop6" /><stop
         style="stop-color:#ffffff;stop-opacity:0;"
         offset="1"
         id="stop7" /></linearGradient><linearGradient
       id="linearGradient4"
       inkscape:collect="always"><stop
         style="stop-color:#000000;stop-opacity:0.2787286;"
         offset="0"
         id="stop4" /><stop
         style="stop-color:#000000;stop-opacity:0;"
         offset="1"
         id="stop5" /></linearGradient><linearGradient
       inkscape:collect="always"
       xlink:href="#linearGradient6"
       id="linearGradient7"
       x1="15.999799"
       y1="0"
       x2="15.999799"
       y2="9.2583494"
       gradientUnits="userSpaceOnUse"
       gradientTransform="matrix(1.3757506,0,0,1,-6.0119337,0)" /><linearGradient
       inkscape:collect="always"
       xlink:href="#linearGradient4"
       id="linearGradient13"
       gradientUnits="userSpaceOnUse"
       gradientTransform="matrix(1,0,0,1.3788049,31.999597,-6.0609002)"
       x1="0"
       y1="16.000057"
       x2="-7.3419037"
       y2="16.000002" /><linearGradient
       inkscape:collect="always"
       xlink:href="#linearGradient4"
       id="linearGradient18"
       gradientUnits="userSpaceOnUse"
       gradientTransform="matrix(-1,0,0,1.3788049,0,-6.0609002)"
       x1="0"
       y1="16.000057"
       x2="-7.3419037"
       y2="16.000002" /></defs><g
     inkscape:label="Layer 1"
     inkscape:groupmode="layer"
     id="layer1"><g
       id="g26"
       inkscape:label="frame1"><rect
         style="display:inline;fill:#555555;fill-opacity:1;stroke-width:2.7243;stroke-linecap:round;stroke-linejoin:round;paint-order:markers stroke fill"
         id="rect17"
         width="29.059259"
         height="29.059259"
         x="1.4701996"
         y="1.4703716"
         ry="2.3394685"
         inkscape:label="color" /><rect
         style="display:inline;fill:#707070;fill-opacity:1;stroke-width:4.09341;stroke-linecap:round;stroke-linejoin:round;paint-order:markers stroke fill"
         id="rect5"
         width="12.792825"
         height="9.3140554"
         x="9.5519714"
         y="11.342979"
         inkscape:label="rect6" /><rect
         style="display:inline;fill:#707070;fill-opacity:1;stroke-width:2.9781;stroke-linecap:round;stroke-linejoin:round;paint-order:markers stroke fill"
         id="rect7"
         width="6.468595"
         height="9.3140574"
         x="0"
         y="11.342979" /><rect
         style="display:inline;fill:#707070;fill-opacity:1;stroke-width:2.8885;stroke-linecap:round;stroke-linejoin:round;paint-order:markers stroke fill"
         id="rect11"
         width="6.3700333"
         height="9.3140554"
         x="25.629799"
         y="11.342979" /><path
         id="rect13"
         style="display:inline;fill:#707070;fill-opacity:1;stroke-width:3.64571;stroke-linecap:round;stroke-linejoin:round;paint-order:markers stroke fill"
         d="M 17.541565 0 L 17.541565 8.0237996 L 31.999597 8.0237996 L 31.999597 2.5760701 C 31.999597 1.1488466 30.850751 0 29.423527 0 L 17.541565 0 z " /><path
         id="rect14"
         style="display:inline;fill:#707070;fill-opacity:1;stroke-width:3.64566;stroke-linecap:round;stroke-linejoin:round;paint-order:markers stroke fill"
         d="M 2.5760701 0 C 1.1488466 0 0 1.1488466 0 2.5760701 L 0 8.0237996 L 14.458032 8.0237996 L 14.458032 0 L 2.5760701 0 z " /><path
         id="rect15"
         style="display:inline;fill:#707070;fill-opacity:1;stroke-width:3.64567;stroke-linecap:round;stroke-linejoin:round;paint-order:markers stroke fill"
         d="M 0 23.976314 L 0 29.424044 C 1.2533172e-15 30.851267 1.1488466 32.000114 2.5760701 32.000114 L 14.458032 32.000114 L 14.458032 23.976314 L 0 23.976314 z " /><path
         id="rect16"
         style="display:inline;fill:#707070;fill-opacity:1;stroke-width:3.64571;stroke-linecap:round;stroke-linejoin:round;paint-order:markers stroke fill"
         d="M 17.541565 23.976314 L 17.541565 32.000114 L 29.423527 32.000114 C 30.850751 32.000114 31.999597 30.851267 31.999597 29.424044 L 31.999597 23.976314 L 17.541565 23.976314 z " /><path
         style="display:inline;fill:#525252;fill-opacity:1;stroke:none;stroke-width:0.266208px;stroke-linecap:butt;stroke-linejoin:miter;stroke-opacity:1"
         d="m 19.201813,32.000114 3.601492,-5.234344 -2.052702,-5.008027 6.622694,-2.874716 -4.510185,3.564797 1.651703,4.44422 -2.87074,5.108068 z"
         id="path56"
         sodipodi:nodetypes="cccccccc"
         inkscape:label="crack2" /><path
         style="display:inline;fill:#525252;fill-opacity:1;stroke:none;stroke-width:0.340162px;stroke-linecap:butt;stroke-linejoin:miter;stroke-opacity:1"
         d="m 8.80308,0 1.418297,6.4206642 4.994,4.5585138 -2.090583,6.52861 0.714744,-5.599145 L 8.860987,6.9614022 6.9038744,0 Z"
         id="path55"
         sodipodi:nodetypes="cccccccc"
         inkscape:label="crack1" /><path
         id="path26"
         style="display:none;fill:#2ce8f4;fill-opacity:1;stroke-width:2.7243;stroke-linecap:round;stroke-linejoin:round;paint-order:markers stroke fill"
         inkscape:label="shape"
         d="M 2.5760701,0 C 1.1488511,0 0,1.1488511 0,2.5760701 V 8.0237996 H 1.4701945 V 11.342977 H 0 v 9.31416 h 1.4701945 v 3.319177 H 0 v 5.44773 c 0,1.427219 1.1488496,2.57607 2.5760701,2.57607 H 14.458032 v -1.470711 h 3.083533 v 1.470711 h 11.881962 c 1.427222,0 2.57607,-1.148851 2.57607,-2.57607 v -5.44773 h -1.470194 v -3.319177 h 1.470194 v -9.31416 H 30.529403 V 8.0237996 h 1.470194 V 2.5760701 C 31.999597,1.1488526 30.850747,0 29.423527,0 H 17.541565 V 1.4701945 H 14.458032 V 0 Z" /><path
         id="use6"
         style="display:inline;fill:url(#linearGradient13);fill-opacity:1;stroke-width:3.06273;stroke-linecap:round;stroke-linejoin:round;paint-order:markers stroke fill"
         inkscape:label="shadowR"
         d="M 24.657926 0 L 24.657926 32.000114 L 29.423527 32.000114 C 29.512728 32.000114 29.60078 31.995441 29.687594 31.986678 C 30.989805 31.855235 31.999597 30.762064 31.999597 29.424044 L 31.999597 23.976314 L 30.529403 23.976314 L 30.529403 20.657137 L 31.999597 20.657137 L 31.999597 11.342977 L 30.529403 11.342977 L 30.529403 8.0237996 L 31.999597 8.0237996 L 31.999597 2.5760701 C 31.999597 1.1488481 30.85075 0 29.423527 0 L 24.657926 0 z " /><path
         id="path18"
         style="display:inline;fill:url(#linearGradient18);fill-opacity:1;stroke-width:3.06273;stroke-linecap:round;stroke-linejoin:round;paint-order:markers stroke fill"
         inkscape:label="shadowL"
         d="M 2.5760701 0 C 1.1488476 0 0 1.1488481 0 2.5760701 L 0 8.0237996 L 1.4701945 8.0237996 L 1.4701945 11.342977 L 0 11.342977 L 0 20.657137 L 1.4701945 20.657137 L 1.4701945 23.976314 L 0 23.976314 L 0 29.424044 C 0 30.851265 1.1488476 32.000114 2.5760701 32.000114 L 7.3416707 32.000114 L 7.3416707 0 L 2.5760701 0 z " /><path
         id="rect6"
         style="display:inline;fill:url(#linearGradient7);fill-opacity:1;stroke-width:3.51877;stroke-linecap:round;stroke-linejoin:round;paint-order:markers stroke fill"
         inkscape:label="highlight"
         d="M 2.5760701 0 C 1.1488496 0 0 1.1488496 0 2.5760701 L 0 8.0237996 L 1.4701945 8.0237996 L 1.4701945 9.2583496 L 30.529403 9.2583496 L 30.529403 8.0237996 L 31.999597 8.0237996 L 31.999597 2.5760701 C 31.999597 1.1488496 30.850749 0 29.423527 0 L 17.541565 0 L 17.541565 1.4701945 L 14.458032 1.4701945 L 14.458032 0 L 2.5760701 0 z " /></g><g
       id="g160"
       inkscape:label="frame2"><path
         style="fill:#858583;fill-opacity:1;stroke:none;stroke-width:0.390399px;stroke-linecap:butt;stroke-linejoin:miter;stroke-opacity:1"
         d="m 53.57631,0.71742784 -6.159022,5.19667736 5.10044,8.5648938 2.983279,-6.8326681 z"
         id="path121" /><path
         style="fill:#7e7e7d;fill-opacity:1;stroke:none;stroke-width:0.264583px;stroke-linecap:butt;stroke-linejoin:miter;stroke-opacity:1"
         d="m 43.306558,9.0004592 -3.326257,5.0872158 2.152282,9.457004 c 0,0 2.869713,-7.565603 2.869713,-7.956927 0,-0.391325 -1.695738,-6.5872928 -1.695738,-6.5872928 z"
         id="path122" /><path
         style="fill:#5c5c5c;fill-opacity:1;stroke:none;stroke-width:0.264583px;stroke-linecap:butt;stroke-linejoin:miter;stroke-opacity:1"
         d="m 45.591257,11.531123 1.531953,2.210086 2.497061,1.664289 -0.59767,-4.166488 z"
         id="path123" /><path
         style="fill:#7e7e7d;fill-opacity:1;stroke:none;stroke-width:0.264583px;stroke-linecap:butt;stroke-linejoin:miter;stroke-opacity:1"
         d="m 36.1975,6.3264098 -2.282727,3.1305943 2.739271,1.7609599 3.521919,-1.6305184 z"
         id="path124" /><path
         style="fill:#5c5c5c;fill-opacity:1;stroke:none;stroke-width:0.264583px;stroke-linecap:butt;stroke-linejoin:miter;stroke-opacity:1"
         d="m 44.089206,3.0653738 -3.065373,2.282725 1.695739,2.1522838 2.478386,-0.3261035 z"
         id="path125" /><path
         style="fill:#555555;fill-opacity:1;stroke:none;stroke-width:0.390399px;stroke-linecap:butt;stroke-linejoin:miter;stroke-opacity:1"
         d="M 44.802159,21.509825 51.758426,26.976693 57.087032,16.1662 47.74543,17.318531 Z"
         id="path126"
         sodipodi:nodetypes="ccccc" /><path
         style="fill:#555555;fill-opacity:1;stroke:none;stroke-width:0.264583px;stroke-linecap:butt;stroke-linejoin:miter;stroke-opacity:1"
         d="m 34.11241,17.466208 1.531953,2.210086 2.497061,1.664289 -0.59767,-4.166488 z"
         id="path127" /><path
         style="fill:#5c5c5c;fill-opacity:1;stroke:none;stroke-width:0.264583px;stroke-linecap:butt;stroke-linejoin:miter;stroke-opacity:1"
         d="m 42.328247,25.43608 -3.065373,2.282725 1.695739,2.152284 2.478386,-0.326103 z"
         id="path128" /><path
         style="fill:#858583;fill-opacity:1;stroke:none;stroke-width:0.264583px;stroke-linecap:butt;stroke-linejoin:miter;stroke-opacity:1"
         d="m 55.765689,26.075343 1.531953,2.210086 2.497061,1.664289 -0.59767,-4.166488 z"
         id="path129" /><path
         style="fill:#555555;fill-opacity:1;stroke:none;stroke-width:0.264583px;stroke-linecap:butt;stroke-linejoin:miter;stroke-opacity:1"
         d="m 59.481296,4.1089052 -1.891401,4.0436843 0.782647,8.4786935 c 0,0 2.869713,-7.5656033 2.869713,-7.9569273 0,-0.391325 -1.760959,-4.5654505 -1.760959,-4.5654505 z"
         id="path130"
         sodipodi:nodetypes="cccsc" /></g><g
       id="g159"
       inkscape:label="frame3"><path
         style="fill:#858583;fill-opacity:1;stroke:none;stroke-width:0.245508px;stroke-linecap:butt;stroke-linejoin:miter;stroke-opacity:1"
         d="m 84.790554,7.9423901 -3.873191,3.2680069 3.207486,5.38616 1.876079,-4.296825 z"
         id="path141" /><path
         style="fill:#7e7e7d;fill-opacity:1;stroke:none;stroke-width:0.186832px;stroke-linecap:butt;stroke-linejoin:miter;stroke-opacity:1"
         d="m 75.066982,15.80872 -2.348795,3.592274 1.519807,6.677944 c 0,0 2.026412,-5.342355 2.026412,-5.618684 0,-0.276329 -1.197424,-4.651534 -1.197424,-4.651534 z"
         id="path142" /><path
         style="fill:#5c5c5c;fill-opacity:1;stroke:none;stroke-width:0.204012px;stroke-linecap:butt;stroke-linejoin:miter;stroke-opacity:1"
         d="m 78.052435,16.612426 1.181244,1.704132 1.92541,1.283284 -0.460846,-3.212656 z"
         id="path143" /><path
         style="fill:#7e7e7d;fill-opacity:1;stroke:none;stroke-width:0.264583px;stroke-linecap:butt;stroke-linejoin:miter;stroke-opacity:1"
         d="m 68.197498,10.997669 -2.282727,3.130595 2.739271,1.76096 3.521919,-1.630519 z"
         id="path144" /><path
         style="fill:#5c5c5c;fill-opacity:1;stroke:none;stroke-width:0.13596px;stroke-linecap:butt;stroke-linejoin:miter;stroke-opacity:1"
         d="m 75.613612,8.8146421 -1.575185,1.17301 0.871379,1.1059809 1.273554,-0.167572 z"
         id="path145" /><path
         style="fill:#555555;fill-opacity:1;stroke:none;stroke-width:0.267291px;stroke-linecap:butt;stroke-linejoin:miter;stroke-opacity:1"
         d="m 78.739114,26.200517 4.762677,3.742945 3.648282,-7.401511 -6.39582,0.788955 z"
         id="path146"
         sodipodi:nodetypes="ccccc" /><path
         style="fill:#555555;fill-opacity:1;stroke:none;stroke-width:0.137384px;stroke-linecap:butt;stroke-linejoin:miter;stroke-opacity:1"
         d="m 67.080886,22.998558 0.795464,1.147583 1.296594,0.864178 -0.310339,-2.16344 z"
         id="path147" /><path
         style="fill:#555555;fill-opacity:1;stroke:none;stroke-width:0.188988px;stroke-linecap:butt;stroke-linejoin:miter;stroke-opacity:1"
         d="m 91.462659,10.569076 -1.351,2.888346 0.559033,6.05621 c 0,0 2.049795,-5.404003 2.049795,-5.68352 0,-0.279518 -1.257828,-3.261036 -1.257828,-3.261036 z"
         id="path150"
         sodipodi:nodetypes="cccsc" /></g><g
       id="g158"
       inkscape:label="frame4"><path
         style="fill:#858583;fill-opacity:1;stroke:none;stroke-width:0.143055px;stroke-linecap:butt;stroke-linejoin:miter;stroke-opacity:1"
         d="m 116.23495,14.723018 -2.25687,1.904232 1.86897,3.138458 1.09318,-2.503713 z"
         id="path151" /><path
         style="fill:#7e7e7d;fill-opacity:1;stroke:none;stroke-width:0.0993618px;stroke-linecap:butt;stroke-linejoin:miter;stroke-opacity:1"
         d="m 106.79747,23.187741 -1.24915,1.910459 0.80827,3.551495 c 0,0 1.0777,-2.841196 1.0777,-2.988154 0,-0.146959 -0.63682,-2.4738 -0.63682,-2.4738 z"
         id="path152" /><path
         style="fill:#5c5c5c;fill-opacity:1;stroke:none;stroke-width:0.119213px;stroke-linecap:butt;stroke-linejoin:miter;stroke-opacity:1"
         d="m 110.69809,22.161374 0.69026,0.995798 1.1251,0.749879 -0.2693,-1.877294 z"
         id="path153" /><path
         style="fill:#7e7e7d;fill-opacity:1;stroke:none;stroke-width:0.159346px;stroke-linecap:butt;stroke-linejoin:miter;stroke-opacity:1"
         d="m 100.53475,16.945361 -1.374785,1.885408 1.649735,1.060543 2.12108,-0.981984 z"
         id="path154" /><path
         style="fill:#555555;fill-opacity:1;stroke:none;stroke-width:0.0972838px;stroke-linecap:butt;stroke-linejoin:miter;stroke-opacity:1"
         d="m 113.41396,30.141526 1.73344,1.362291 1.32784,-2.693871 -2.32784,0.28715 z"
         id="path156"
         sodipodi:nodetypes="ccccc" /><path
         style="fill:#555555;fill-opacity:1;stroke:none;stroke-width:0.135534px;stroke-linecap:butt;stroke-linejoin:miter;stroke-opacity:1"
         d="m 123.44949,16.808917 -0.96888,2.071398 0.40092,4.343255 c 0,0 1.47003,-3.87552 1.47003,-4.075977 0,-0.200459 -0.90207,-2.338676 -0.90207,-2.338676 z"
         id="path158"
         sodipodi:nodetypes="cccsc" /></g></g></svg>
