<?xml version="1.0" encoding="UTF-8" standalone="no"?>
<!-- Created with Inkscape (http://www.inkscape.org/) -->

<svg
   width="128mm"
   height="128mm"
   viewBox="0 0 128 128"
   version="1.1"
   id="svg1"
   xml:space="preserve"
   inkscape:export-filename="..\assets\tilesets\desert_tileset.png"
   inkscape:export-xdpi="101.6"
   inkscape:export-ydpi="101.6"
   inkscape:version="1.3.2 (091e20e, 2023-11-25, custom)"
   sodipodi:docname="desert_tileset.svg"
   xmlns:inkscape="http://www.inkscape.org/namespaces/inkscape"
   xmlns:sodipodi="http://sodipodi.sourceforge.net/DTD/sodipodi-0.dtd"
   xmlns:xlink="http://www.w3.org/1999/xlink"
   xmlns="http://www.w3.org/2000/svg"
   xmlns:svg="http://www.w3.org/2000/svg"><sodipodi:namedview
     id="namedview1"
     pagecolor="#ffffff"
     bordercolor="#999999"
     borderopacity="1"
     inkscape:showpageshadow="0"
     inkscape:pageopacity="0"
     inkscape:pagecheckerboard="0"
     inkscape:deskcolor="#d1d1d1"
     inkscape:document-units="mm"
     showgrid="true"
     inkscape:zoom="1.156174"
     inkscape:cx="166.06497"
     inkscape:cy="200.22938"
     inkscape:window-width="1920"
     inkscape:window-height="1001"
     inkscape:window-x="-9"
     inkscape:window-y="-9"
     inkscape:window-maximized="1"
     inkscape:current-layer="layer2"
     showguides="true"><inkscape:grid
       id="grid1"
       units="mm"
       originx="0"
       originy="0"
       spacingx="3.9999999"
       spacingy="3.9999999"
       empcolor="#0099e5"
       empopacity="0.30196078"
       color="#0099e5"
       opacity="0.14901961"
       empspacing="4"
       dotted="false"
       gridanglex="30"
       gridanglez="30"
       visible="true"
       enabled="true" /></sodipodi:namedview><defs
     id="defs1"><linearGradient
       id="linearGradient27"
       inkscape:collect="always"><stop
         style="stop-color:#001b4f;stop-opacity:0;"
         offset="0"
         id="stop26" /><stop
         style="stop-color:#000000;stop-opacity:0.26666668;"
         offset="1"
         id="stop27" /></linearGradient><pattern
       id="EMFhbasepattern"
       patternUnits="userSpaceOnUse"
       width="6"
       height="6"
       x="0"
       y="0" /><linearGradient
       inkscape:collect="always"
       xlink:href="#linearGradient27"
       id="linearGradient19"
       x1="36"
       y1="25.999878"
       x2="48"
       y2="25.999878"
       gradientUnits="userSpaceOnUse"
       gradientTransform="matrix(0.99994363,0,0,1.7012027,0.00190492,-20.300668)" /><linearGradient
       inkscape:collect="always"
       xlink:href="#linearGradient27"
       id="linearGradient52"
       gradientUnits="userSpaceOnUse"
       gradientTransform="matrix(0.99994025,0,0,2.5518774,16.002534,-34.452201)"
       x1="36"
       y1="25.999878"
       x2="48"
       y2="25.999878" /><linearGradient
       inkscape:collect="always"
       xlink:href="#linearGradient27"
       id="linearGradient60"
       gradientUnits="userSpaceOnUse"
       gradientTransform="matrix(-0.99994025,0,0,2.5518774,111.99795,-34.452201)"
       x1="36"
       y1="25.999878"
       x2="48"
       y2="25.999878" /></defs><g
     inkscape:groupmode="layer"
     id="layer2"
     inkscape:label="References"
     style="display:inline"><rect
       style="display:inline;fill:#f7b456;fill-opacity:1;stroke-width:0;stroke-linecap:round;stroke-linejoin:round;paint-order:markers stroke fill"
       id="rect1"
       width="35.013111"
       height="32.953518"
       x="-67.656868"
       y="-51.732597" /><rect
       style="display:inline;fill:#ce8948;fill-opacity:1;stroke-width:0;stroke-linecap:round;stroke-linejoin:round;paint-order:markers stroke fill"
       id="rect3"
       width="32.953518"
       height="35.470798"
       x="-66.364723"
       y="-6.1787844" /></g><g
     inkscape:label="Layer 1"
     inkscape:groupmode="layer"
     id="layer1"
     style="display:inline"><g
       id="g18"
       inkscape:label="slope"><rect
         style="display:inline;fill:#ccb690;fill-opacity:1;stroke:none;stroke-width:2.82845;stroke-linecap:round"
         id="rect11"
         width="22.627575"
         height="22.627575"
         x="67.882668"
         y="-67.882668"
         inkscape:label="grass"
         ry="0"
         transform="rotate(45)" /><rect
         style="fill:#ae8d78;fill-opacity:1;stroke:none;stroke-width:2.19473;stroke-linecap:round"
         id="rect12"
         width="11.259258"
         height="11.259258"
         x="73.566742"
         y="-62.198505"
         inkscape:label="dirt"
         ry="0"
         transform="rotate(45)" /></g><g
       id="g1"
       inkscape:label="spike"
       style="display:inline;stroke:none"
       transform="translate(9.333786e-5,-0.14141728)"><path
         style="fill:#afbfd2;stroke:none;stroke-width:0.266911px;stroke-linecap:butt;stroke-linejoin:miter;stroke-opacity:1"
         d="M 112,16.28283 120,0 l 8,16.28283 z"
         id="path10"
         sodipodi:nodetypes="cccc" /><path
         id="rect10"
         style="display:inline;fill:#869cb4;fill-opacity:1;stroke:none;stroke-width:1.77941;paint-order:markers stroke fill"
         d="m 119.99991,0 -7.99899,16.280735 v 0.0021 h 7.99899 z" /></g><g
       id="g7"><path
         id="rect2"
         style="display:inline;fill:#ce8948;fill-opacity:1;stroke:none;stroke-width:0.0733956;stroke-dasharray:none;stroke-opacity:1;paint-order:markers stroke fill"
         d="M 3.8259533,0 C 1.7063629,0 -1.6966486e-4,1.7065326 -1.6966486e-4,3.826123 V 3.9997559 8.0000285 8.1741781 11.999784 48.000171 H 48.000001 V 11.999784 3.9997559 3.826123 C 48.000001,1.7065326 46.293468,0 44.173878,0 Z" /><path
         id="path25"
         style="display:inline;fill:#000000;fill-opacity:0.164384;stroke:#df7e4f;stroke-width:0;stroke-linecap:round;stroke-linejoin:round;stroke-dasharray:none;stroke-opacity:1;paint-order:markers stroke fill"
         d="M 3.7450448,2.5486186 C 1.6254588,2.5486186 0,4.3003869 0,6.4761521 v 0.178235 4.1062989 c 2.1848e-4,2.267549 1.8197092,2.755216 3.9186777,2.755216 2.0989685,0 3.0956382,-1.454835 6.0306401,-1.404662 2.9350002,0.05017 1.9696642,1.404662 5.9696602,1.404662 3.999997,0 3.940842,-1.387765 8.000028,-1.404662 4.059187,-0.0169 4.000098,1.404662 8.000029,1.404662 3.99993,0 2.918683,-1.404662 5.91075,-1.404662 2.992066,0 4.002497,1.404662 6.089034,1.404662 2.086536,0 4.081182,-0.652649 4.081182,-2.754686 v -5.3e-4 -4.1062989 -0.178235 c 0,-2.1757652 -1.787446,-3.9275335 -3.907032,-3.9275335 z"
         sodipodi:nodetypes="ssccssssssssccsss" /><path
         id="rect20"
         style="display:inline;fill:#f7b456;fill-opacity:1;stroke:#df7e4f;stroke-width:0;stroke-linecap:round;stroke-linejoin:round;stroke-dasharray:none;stroke-opacity:1;paint-order:markers stroke fill"
         d="M 3.8259533,0 C 1.7063673,0 0,1.706537 0,3.826123 v 0.1736329 4.0002726 c 2.1847366e-4,2.2089985 1.9006177,2.6840735 3.9995862,2.6840735 2.0989685,0 3.0956382,-1.4172689 6.0306398,-1.3683916 2.935001,0.048877 1.969665,1.3683916 5.969661,1.3683916 3.999997,0 3.940842,-1.3519306 8.000028,-1.3683916 4.059187,-0.016461 4.000098,1.3683916 8.000029,1.3683916 3.99993,0 2.918683,-1.3683916 5.91075,-1.3683916 2.992066,0 4.002497,1.3683916 6.089034,1.3683916 2.086536,0 4.000353,-0.635797 4.000273,-2.6835568 V 8.0000285 3.9997559 3.826123 C 48.000001,1.706537 46.293464,0 44.173878,0 Z"
         sodipodi:nodetypes="ssccssssssssccsss" /><path
         id="rect9"
         style="display:inline;fill:url(#linearGradient19);fill-opacity:1;stroke:#df7e4f;stroke-width:0;stroke-linecap:round;stroke-linejoin:round;stroke-dasharray:none;stroke-opacity:1;paint-order:markers stroke fill"
         d="M 35.9997,0 V 48.000171 H 47.999484 V 3.8157878 C 47.993876,1.701052 46.289975,0 44.173878,0 Z" /><use
         x="0"
         y="0"
         xlink:href="#rect9"
         id="use27"
         transform="matrix(-1,0,0,1,47.999314,0)"
         style="display:inline" /></g><g
       id="g6"><path
         id="use51"
         style="display:inline;fill:url(#linearGradient52);fill-opacity:1;stroke:#df7e4f;stroke-width:0;stroke-linecap:round;stroke-linejoin:round;stroke-dasharray:none;stroke-opacity:1;paint-order:markers stroke fill"
         d="M 52.000444,0 V 16.000057 H 64.000228 V 1.7239258 C 63.999166,1.122539 63.93632,0.54362333 63.821944,0 Z" /><path
         id="path60"
         style="display:inline;fill:url(#linearGradient60);fill-opacity:1;stroke:#df7e4f;stroke-width:0;stroke-linecap:round;stroke-linejoin:round;stroke-dasharray:none;stroke-opacity:1;paint-order:markers stroke fill"
         d="M 76.000036,0 V 16.000057 H 64.000252 V 1.7239258 C 64.001314,1.122539 64.06416,0.54362333 64.178536,0 Z" /><rect
         style="display:inline;fill:#ce8948;fill-opacity:1;stroke:#df7e4f;stroke-width:0;stroke-linecap:round;stroke-linejoin:round;stroke-dasharray:none;stroke-opacity:1;paint-order:markers stroke fill"
         id="rect55"
         width="32.000481"
         height="16"
         x="48"
         y="0" /><path
         id="path51"
         style="display:inline;fill:#000000;fill-opacity:0.164384;stroke:#df7e4f;stroke-width:0;stroke-linecap:round;stroke-linejoin:round;stroke-dasharray:none;stroke-opacity:1;paint-order:markers stroke fill"
         d="m 51.745494,2.54843 c -2.119577,0 -3.745496,1.7521874 -3.745496,3.9279822 v 0.1782863 4.1062685 c 2.18e-4,2.26758 1.820169,2.754911 3.919128,2.754911 2.09896,0 3.09563,-1.45476 6.030619,-1.404586 2.934987,0.05017 1.969663,1.404586 5.969642,1.404586 0.02861,0 0.05242,-0.0014 0.08062,-0.0015 V 2.54843 Z" /><path
         id="path50"
         style="display:inline;fill:#f7b456;fill-opacity:1;stroke:#df7e4f;stroke-width:0;stroke-linecap:round;stroke-linejoin:round;stroke-dasharray:none;stroke-opacity:1;paint-order:markers stroke fill"
         d="m 51.826222,2.2800667e-4 c -2.119639,0 -3.826224,1.70656379333 -3.826224,3.82617849333 V 4.000042 8.0003723 c 2.18e-4,2.2090287 1.90084,2.6841127 3.999862,2.6841127 2.099022,0 3.095723,-1.4172896 6.0308,-1.3684117 2.935075,0.048878 1.969722,1.3684117 5.969819,1.3684117 V 2.2800667e-4 Z" /><path
         id="path58"
         style="display:inline;fill:#000000;fill-opacity:0.164384;stroke:#df7e4f;stroke-width:0;stroke-linecap:round;stroke-linejoin:round;stroke-dasharray:none;stroke-opacity:1;paint-order:markers stroke fill"
         d="m 76.254986,2.54843 c 2.119577,0 3.745496,1.7521874 3.745496,3.9279822 v 0.1782863 4.1062685 c -2.18e-4,2.26758 -1.820169,2.754911 -3.919128,2.754911 -2.09896,0 -3.09563,-1.45476 -6.030619,-1.404586 -2.934987,0.05017 -1.969663,1.404586 -5.969642,1.404586 -0.02861,0 -0.05242,-0.0014 -0.08062,-0.0015 V 2.54843 Z" /><path
         id="path59"
         style="display:inline;fill:#f7b456;fill-opacity:1;stroke:#df7e4f;stroke-width:0;stroke-linecap:round;stroke-linejoin:round;stroke-dasharray:none;stroke-opacity:1;paint-order:markers stroke fill"
         d="m 76.174372,2.2800667e-4 c 2.119576,0 3.82611,1.70656379333 3.82611,3.82617849333 V 4.000042 8.0003723 c -2.18e-4,2.2090287 -1.900783,2.6841127 -3.999743,2.6841127 -2.098959,0 -3.09563,-1.4172896 -6.030619,-1.3684117 -2.934988,0.048878 -1.969663,1.3684117 -5.969641,1.3684117 V 2.2800667e-4 Z" /></g></g></svg>
