<?xml version="1.0" encoding="UTF-8" standalone="no"?>
<!-- Created with Inkscape (http://www.inkscape.org/) -->

<svg
   width="128mm"
   height="128mm"
   viewBox="0 0 128 128"
   version="1.1"
   id="svg1"
   xml:space="preserve"
   inkscape:export-filename="..\assets\tilesets\base_tileset.png"
   inkscape:export-xdpi="101.6"
   inkscape:export-ydpi="101.6"
   inkscape:version="1.3.2 (091e20e, 2023-11-25, custom)"
   sodipodi:docname="forest_tileset.svg"
   xmlns:inkscape="http://www.inkscape.org/namespaces/inkscape"
   xmlns:sodipodi="http://sodipodi.sourceforge.net/DTD/sodipodi-0.dtd"
   xmlns:xlink="http://www.w3.org/1999/xlink"
   xmlns="http://www.w3.org/2000/svg"
   xmlns:svg="http://www.w3.org/2000/svg"><sodipodi:namedview
     id="namedview1"
     pagecolor="#ffffff"
     bordercolor="#999999"
     borderopacity="1"
     inkscape:showpageshadow="0"
     inkscape:pageopacity="0"
     inkscape:pagecheckerboard="0"
     inkscape:deskcolor="#d1d1d1"
     inkscape:document-units="mm"
     showgrid="true"
     inkscape:zoom="1.4142136"
     inkscape:cx="188.44396"
     inkscape:cy="180.66578"
     inkscape:window-width="2560"
     inkscape:window-height="1017"
     inkscape:window-x="1912"
     inkscape:window-y="-8"
     inkscape:window-maximized="1"
     inkscape:current-layer="g13"
     showguides="true"><inkscape:grid
       id="grid1"
       units="mm"
       originx="0"
       originy="0"
       spacingx="3.9999999"
       spacingy="3.9999999"
       empcolor="#0099e5"
       empopacity="0.30196078"
       color="#0099e5"
       opacity="0.14901961"
       empspacing="4"
       dotted="false"
       gridanglex="30"
       gridanglez="30"
       visible="true"
       enabled="true" /></sodipodi:namedview><defs
     id="defs1"><linearGradient
       id="linearGradient12"
       inkscape:collect="always"><stop
         style="stop-color:#b4ed67;stop-opacity:1;"
         offset="0"
         id="stop12" /><stop
         style="stop-color:#80cb53;stop-opacity:1;"
         offset="1"
         id="stop13" /></linearGradient><linearGradient
       id="linearGradient49"
       inkscape:collect="always"><stop
         style="stop-color:#82cd54;stop-opacity:1"
         offset="0"
         id="stop50" /><stop
         style="stop-color:#b2ec66;stop-opacity:1;"
         offset="0.71271932"
         id="stop49" /></linearGradient><linearGradient
       id="linearGradient46"
       inkscape:collect="always"><stop
         style="stop-color:#b2ec66;stop-opacity:1;"
         offset="0"
         id="stop46" /><stop
         style="stop-color:#81cc53;stop-opacity:1"
         offset="1"
         id="stop47" /></linearGradient><linearGradient
       id="linearGradient7"
       inkscape:collect="always"><stop
         style="stop-color:#b4ed67;stop-opacity:1;"
         offset="0"
         id="stop7" /><stop
         style="stop-color:#80cb53;stop-opacity:1;"
         offset="1"
         id="stop10" /></linearGradient><linearGradient
       id="linearGradient4"
       inkscape:collect="always"><stop
         style="stop-color:#cf8e68;stop-opacity:1"
         offset="0"
         id="stop3" /><stop
         style="stop-color:#87573f;stop-opacity:1;"
         offset="1"
         id="stop4" /></linearGradient><linearGradient
       inkscape:collect="always"
       xlink:href="#linearGradient4"
       id="linearGradient3"
       gradientUnits="userSpaceOnUse"
       gradientTransform="matrix(0.99994363,0,0,1.4203607,-3.9975635,-9.0254368)"
       x1="36"
       y1="25.999878"
       x2="48"
       y2="25.999878" /><linearGradient
       inkscape:collect="always"
       xlink:href="#linearGradient7"
       id="linearGradient11"
       gradientUnits="userSpaceOnUse"
       x1="24"
       y1="0"
       x2="24"
       y2="11.999784"
       gradientTransform="matrix(0.66667059,0,0,1,48.000171,0)" /><linearGradient
       inkscape:collect="always"
       xlink:href="#linearGradient46"
       id="linearGradient47"
       x1="88"
       y1="8"
       x2="96"
       y2="16"
       gradientUnits="userSpaceOnUse" /><linearGradient
       inkscape:collect="always"
       xlink:href="#linearGradient49"
       id="linearGradient50"
       x1="90"
       y1="42"
       x2="96"
       y2="48"
       gradientUnits="userSpaceOnUse" /><linearGradient
       inkscape:collect="always"
       xlink:href="#linearGradient12"
       id="linearGradient13"
       x1="24.010939"
       y1="-0.066145837"
       x2="24.010939"
       y2="15.808854"
       gradientUnits="userSpaceOnUse" /></defs><g
     inkscape:label="Layer 1"
     inkscape:groupmode="layer"
     id="layer1"><g
       id="g1"
       inkscape:label="spike"
       style="display:inline;stroke:none"><path
         style="fill:#afbfd2;stroke:none;stroke-width:0.266911px;stroke-linecap:butt;stroke-linejoin:miter;stroke-opacity:1"
         d="M 112,16.28283 120,0 l 8,16.28283 z"
         id="path10"
         sodipodi:nodetypes="cccc" /><path
         id="rect10"
         style="display:inline;fill:#869cb4;fill-opacity:1;stroke:none;stroke-width:1.77941;paint-order:markers stroke fill"
         d="m 119.99991,0 -7.99899,16.280735 v 0.0021 h 7.99899 z" /></g><g
       id="g13"
       inkscape:label="1"><rect
         style="display:inline;fill:#cf8e68;fill-opacity:1;stroke:none;stroke-width:0.0616371;stroke-dasharray:none;stroke-opacity:1;paint-order:markers stroke fill"
         id="rect1"
         width="40.000015"
         height="43.967804"
         x="4"
         y="4.032197"
         ry="5.6066747"
         inkscape:label="dirt" /><path
         id="path3"
         style="display:inline;fill:url(#linearGradient3);fill-opacity:1;stroke:#df7e4f;stroke-width:0;stroke-linecap:round;stroke-linejoin:round;stroke-dasharray:none;stroke-opacity:1;paint-order:markers stroke fill"
         inkscape:label="shadowR"
         d="M 32.000114,7.9240641 V 48.000171 h 6.393408 c 3.106095,0 5.606376,-2.500798 5.606376,-5.606893 V 11.109916 C 43.994298,9.3442923 42.290387,7.9240641 40.174292,7.9240641 Z" /><use
         x="0"
         y="0"
         xlink:href="#path3"
         id="use5"
         transform="matrix(-1,0,0,1,48.000015,-9.9999999e-7)"
         inkscape:label="shadowL"
         style="display:inline" /><path
         id="path13"
         style="display:inline;fill:#000000;fill-opacity:0.29158512;stroke:none;stroke-width:0.0733956;stroke-dasharray:none;stroke-opacity:1;paint-order:markers stroke fill"
         inkscape:label="grassShadow"
         d="M 9.6066488 4.032312 C 6.5005541 4.032312 3.9997559 6.5325935 3.9997559 9.6386882 L 3.9997559 14.856458 C 4.3155755 14.929836 4.6426395 14.972213 4.9800578 14.972213 C 6.2612363 14.971832 7.4795682 14.40202 8.3209391 13.409517 C 9.0768022 14.9282 10.595673 15.885832 12.256099 15.889986 C 13.754538 15.889309 15.151172 15.110436 15.968534 13.820345 C 16.809867 14.83089 18.039253 15.413187 19.333704 15.414046 C 21.178816 15.409046 22.827846 14.230083 23.473503 12.454537 C 24.313128 13.508266 25.567853 14.12077 26.893449 14.123686 C 28.248809 14.119886 29.527973 13.479356 30.365588 12.384774 L 30.418298 12.384774 C 31.063513 14.161129 32.712919 15.340766 34.558614 15.345833 C 36.404309 15.340833 38.053715 14.161129 38.69893 12.384774 L 38.728385 12.384774 C 39.450943 14.001045 41.023621 15.037016 42.755013 15.037325 C 43.187533 15.037325 43.604713 14.970482 43.999898 14.851807 L 43.999898 9.6386882 C 43.999898 6.5325935 41.499617 4.032312 38.393522 4.032312 L 9.6066488 4.032312 z " /><path
         id="rect2"
         style="display:inline;fill:url(#linearGradient13);fill-opacity:1;stroke:none;stroke-width:0.0733956;stroke-dasharray:none;stroke-opacity:1;paint-order:markers stroke fill"
         inkscape:label="grass"
         d="M 5.383134,0 C 4.6264964,0 3.414155,0.27111946 2.7249292,0.58399586 1.3125329,1.3182693 0.66296837,3.1978318 0.65827687,4.7218295 c -0.0343889,3.3711643 -0.0136492,1.3585617 -0.0105178,4.0198431 4.4e-7,2.3142584 1.88495293,4.1903354 4.33255203,4.1903354 1.2811798,-3.51e-4 2.4995096,-0.524923 3.3408814,-1.438473 0.7558638,1.397873 2.2747325,2.278971 3.9351605,2.282795 1.49844,-6.23e-4 2.895072,-0.717144 3.712435,-1.904609 0.841333,0.930157 2.070717,1.466022 3.365169,1.466812 1.845114,-0.0046 3.494142,-1.089708 4.139799,-2.724011 0.839626,0.969906 2.094349,1.533511 3.419946,1.536196 1.355361,-0.0035 2.634524,-0.593184 3.47214,-1.600693 h 0.05271 c 0.645215,1.635047 2.294619,2.720814 4.140316,2.725478 1.845697,-0.0046 3.4951,-1.090431 4.140315,-2.725478 h 0.02946 c 0.722558,1.487698 2.295234,2.44131 4.026628,2.441595 2.447599,0 4.43177,-1.876079 4.43177,-4.190337 l 0.04987,-3.7323614 C 47.236484,3.4325452 45.964075,1.1740436 44.391606,0.49056644 43.870374,0.18036488 43.265592,0 42.617037,0 Z"
         sodipodi:nodetypes="scccccccccccccccccccss" /></g><g
       id="g3"
       inkscape:label="2"
       style="display:inline"><rect
         style="display:inline;fill:#cf8e68;fill-opacity:1;stroke:none;stroke-width:0.0379297;stroke-dasharray:none;stroke-opacity:1;paint-order:markers stroke fill"
         id="rect4"
         width="32.000473"
         height="16.000725"
         x="48"
         y="6.1062266e-16" /><rect
         style="fill:#9c6b4e;fill-opacity:1;stroke:none;stroke-width:3.09714;paint-order:markers stroke fill"
         id="rect8"
         width="24.000004"
         height="4.0007248"
         x="51.999996"
         y="12" /><path
         id="path11"
         style="fill:url(#linearGradient11);fill-opacity:1;stroke:none;stroke-width:0.0599274;stroke-dasharray:none;stroke-opacity:1;paint-order:markers stroke fill"
         d="m 50.550934,0 c -1.41307,0 -2.550763,1.7065303 -2.550763,3.8261229 v 0.173633 4.1744222 3.8256059 h 2.550763 26.898776 2.550763 V 8.1741781 3.9997559 3.8261229 C 80.000473,1.7065303 78.862779,0 77.44971,0 Z" /></g><g
       id="g16"
       inkscape:label="3"
       style="display:inline"><rect
         style="fill:#cf8e68;fill-opacity:1;stroke-width:7;stroke-linecap:round;stroke-linejoin:round;paint-order:markers stroke fill"
         id="rect18"
         width="16"
         height="16"
         x="48"
         y="16"
         ry="0" /><rect
         style="fill:#885840;fill-opacity:1;stroke-width:3.94636;stroke-linecap:round;stroke-linejoin:round;paint-order:markers stroke fill"
         id="rect19"
         width="2.2550654"
         height="2.2550654"
         x="21.753819"
         y="49.176407"
         transform="rotate(-45)" /><rect
         style="fill:#885840;fill-opacity:1;stroke-width:6.34922;stroke-linecap:round;stroke-linejoin:round;paint-order:markers stroke fill"
         id="rect20"
         width="3.6281285"
         height="3.6281285"
         x="20.813354"
         y="58.597271"
         transform="rotate(-45)" /></g><g
       id="g49"
       inkscape:label="4"
       style="display:inline"><path
         style="fill:url(#linearGradient47);fill-opacity:1;stroke:none;stroke-width:0.264583px;stroke-linecap:butt;stroke-linejoin:miter;stroke-opacity:1"
         d="M 80,16 96.000003,0 v 16 z"
         id="path45" /><use
         x="0"
         y="0"
         xlink:href="#path45"
         id="use47"
         transform="rotate(90,96.000002,16)" /><use
         x="0"
         y="0"
         xlink:href="#path45"
         id="use48"
         transform="rotate(180,96.000003,16)" /><use
         x="0"
         y="0"
         xlink:href="#path45"
         id="use49"
         transform="rotate(-90,96.000003,16.000001)" /><rect
         style="fill:#9c6b4e;fill-opacity:1;stroke:#242424;stroke-width:0;stroke-linecap:round;stroke-linejoin:round;paint-order:markers stroke fill"
         id="rect40"
         width="5.7047305"
         height="5.7047305"
         x="53.716179"
         y="76.34359"
         transform="rotate(-45)" /></g><g
       id="g2"
       inkscape:label="5"
       style="display:inline"><rect
         style="display:inline;fill:#cf8e68;fill-opacity:1;stroke:#242424;stroke-width:0;stroke-linecap:round;stroke-linejoin:round;paint-order:markers stroke fill"
         id="rect41"
         width="32.000004"
         height="32.000004"
         x="80"
         y="32.000004" /><rect
         style="display:inline;fill:#9c6b4e;fill-opacity:1;stroke:#242424;stroke-width:0;stroke-linecap:round;stroke-linejoin:round;paint-order:markers stroke fill"
         id="rect44"
         width="22.627432"
         height="22.627432"
         x="22.627407"
         y="90.509659"
         transform="rotate(-45)" /><path
         style="fill:url(#linearGradient50);fill-opacity:1;stroke:none;stroke-width:0.264583px;stroke-linecap:butt;stroke-linejoin:miter;stroke-opacity:1"
         d="M 84,48.000001 96.000003,36.000002 v 11.999999 z"
         id="path49" /><use
         x="0"
         y="0"
         xlink:href="#path49"
         id="use50"
         transform="rotate(90,96.000002,48.000002)" /><use
         x="0"
         y="0"
         xlink:href="#path49"
         id="use51"
         transform="rotate(-90,96.000002,48.000002)" /><use
         x="0"
         y="0"
         xlink:href="#path49"
         id="use52"
         transform="rotate(180,96.000002,48.000002)" /></g></g></svg>
