<?xml version="1.0" encoding="UTF-8" standalone="no"?>
<!-- Created with Inkscape (http://www.inkscape.org/) -->

<svg
   width="128mm"
   height="128mm"
   viewBox="0 0 128 128"
   version="1.1"
   id="svg1"
   xml:space="preserve"
   inkscape:export-filename="..\assets\tilesets\forest_tileset.png"
   inkscape:export-xdpi="101.6"
   inkscape:export-ydpi="101.6"
   inkscape:version="1.3.2 (091e20e, 2023-11-25, custom)"
   sodipodi:docname="forest_tileset.svg"
   xmlns:inkscape="http://www.inkscape.org/namespaces/inkscape"
   xmlns:sodipodi="http://sodipodi.sourceforge.net/DTD/sodipodi-0.dtd"
   xmlns:xlink="http://www.w3.org/1999/xlink"
   xmlns="http://www.w3.org/2000/svg"
   xmlns:svg="http://www.w3.org/2000/svg"><sodipodi:namedview
     id="namedview1"
     pagecolor="#ffffff"
     bordercolor="#999999"
     borderopacity="1"
     inkscape:showpageshadow="0"
     inkscape:pageopacity="0"
     inkscape:pagecheckerboard="0"
     inkscape:deskcolor="#d1d1d1"
     inkscape:document-units="mm"
     showgrid="true"
     inkscape:zoom="5.6568543"
     inkscape:cx="201.61382"
     inkscape:cy="86.885745"
     inkscape:window-width="2560"
     inkscape:window-height="1017"
     inkscape:window-x="1912"
     inkscape:window-y="-8"
     inkscape:window-maximized="1"
     inkscape:current-layer="layer1"
     showguides="true"><inkscape:grid
       id="grid1"
       units="mm"
       originx="0"
       originy="0"
       spacingx="3.9999999"
       spacingy="3.9999999"
       empcolor="#0099e5"
       empopacity="0.30196078"
       color="#0099e5"
       opacity="0.14901961"
       empspacing="4"
       dotted="false"
       gridanglex="30"
       gridanglez="30"
       visible="true"
       enabled="true" /></sodipodi:namedview><defs
     id="defs1"><linearGradient
       id="linearGradient15"
       inkscape:collect="always"><stop
         style="stop-color:#cded7b;stop-opacity:1;"
         offset="0"
         id="stop15" /><stop
         style="stop-color:#6cc039;stop-opacity:1;"
         offset="1"
         id="stop16" /></linearGradient><linearGradient
       id="linearGradient12"
       inkscape:collect="always"><stop
         style="stop-color:#cfee7d;stop-opacity:1;"
         offset="0"
         id="stop12" /><stop
         style="stop-color:#6cc039;stop-opacity:1;"
         offset="1"
         id="stop13" /></linearGradient><linearGradient
       id="linearGradient46"
       inkscape:collect="always"><stop
         style="stop-color:#b2ec66;stop-opacity:1;"
         offset="0"
         id="stop46" /><stop
         style="stop-color:#81cc53;stop-opacity:1"
         offset="1"
         id="stop47" /></linearGradient><linearGradient
       id="linearGradient4"
       inkscape:collect="always"><stop
         style="stop-color:#cf8e68;stop-opacity:1"
         offset="0"
         id="stop3" /><stop
         style="stop-color:#87573f;stop-opacity:1;"
         offset="1"
         id="stop4" /></linearGradient><linearGradient
       inkscape:collect="always"
       xlink:href="#linearGradient4"
       id="linearGradient3"
       gradientUnits="userSpaceOnUse"
       gradientTransform="matrix(0.99994363,0,0,1.4203607,-3.9975635,-9.0254368)"
       x1="36"
       y1="25.999878"
       x2="48"
       y2="25.999878" /><linearGradient
       inkscape:collect="always"
       xlink:href="#linearGradient46"
       id="linearGradient47"
       x1="88"
       y1="8"
       x2="96"
       y2="16"
       gradientUnits="userSpaceOnUse" /><linearGradient
       inkscape:collect="always"
       xlink:href="#linearGradient12"
       id="linearGradient13"
       x1="24.010939"
       y1="-0.066145837"
       x2="24.010939"
       y2="15.808854"
       gradientUnits="userSpaceOnUse" /><linearGradient
       inkscape:collect="always"
       xlink:href="#linearGradient15"
       id="linearGradient16"
       x1="7.8577242"
       y1="0"
       x2="8"
       y2="16"
       gradientUnits="userSpaceOnUse"
       gradientTransform="translate(47.999942)" /><linearGradient
       inkscape:collect="always"
       xlink:href="#linearGradient15"
       id="linearGradient18"
       gradientUnits="userSpaceOnUse"
       gradientTransform="matrix(-1,0,0,1,80.000062,0)"
       x1="7.8577242"
       y1="0"
       x2="8"
       y2="16" /></defs><g
     inkscape:label="Layer 1"
     inkscape:groupmode="layer"
     id="layer1"><g
       id="g1"
       inkscape:label="spike"
       style="display:inline;stroke:none"><path
         style="fill:#afbfd2;stroke:none;stroke-width:0.266911px;stroke-linecap:butt;stroke-linejoin:miter;stroke-opacity:1"
         d="M 112,16.28283 120,0 l 8,16.28283 z"
         id="path10"
         sodipodi:nodetypes="cccc" /><path
         id="rect10"
         style="display:inline;fill:#869cb4;fill-opacity:1;stroke:none;stroke-width:1.77941;paint-order:markers stroke fill"
         d="m 119.99991,0 -7.99899,16.280735 v 0.0021 h 7.99899 z" /></g><g
       id="g19"
       inkscape:label="1"><rect
         style="display:inline;fill:#cf8e68;fill-opacity:1;stroke:none;stroke-width:0.0616371;stroke-dasharray:none;stroke-opacity:1;paint-order:markers stroke fill"
         id="rect1"
         width="40.000015"
         height="43.967804"
         x="4"
         y="4.032197"
         ry="5.6066747"
         inkscape:label="dirt" /><path
         id="path3"
         style="display:inline;fill:url(#linearGradient3);fill-opacity:1;stroke:#df7e4f;stroke-width:0;stroke-linecap:round;stroke-linejoin:round;stroke-dasharray:none;stroke-opacity:1;paint-order:markers stroke fill"
         inkscape:label="shadowR"
         d="M 32.000114,7.9240641 V 48.000171 h 6.393408 c 3.106095,0 5.606376,-2.500798 5.606376,-5.606893 V 11.109916 C 43.994298,9.3442923 42.290387,7.9240641 40.174292,7.9240641 Z" /><use
         x="0"
         y="0"
         xlink:href="#path3"
         id="use5"
         transform="matrix(-1,0,0,1,48.000015,-9.9999999e-7)"
         inkscape:label="shadowL"
         style="display:inline" /><path
         id="path13"
         style="display:inline;fill:#000000;fill-opacity:0.252446;stroke:none;stroke-width:0.0733956;stroke-dasharray:none;stroke-opacity:1;paint-order:markers stroke fill"
         inkscape:label="grassShadow"
         d="m 9.6066488,4.1976766 c -3.1060947,0 -5.6068929,2.5002815 -5.6068929,5.6063762 v 5.1278532 c 0.3141632,0.06828 0.6409891,0.108003 0.9803019,0.108003 1.2811785,-3.51e-4 2.4995104,-0.525123 3.3408813,-1.438672 0.7558631,1.397872 2.2747339,2.278724 3.9351599,2.282548 1.498439,-6.23e-4 2.926596,-0.588655 3.743958,-1.776119 0.841332,0.930157 2.039196,1.33763 3.333647,1.33842 1.845112,-0.0046 3.494142,-1.089563 4.139799,-2.723865 0.839625,0.969905 2.09435,1.533656 3.419946,1.536341 1.35536,-0.0035 3.180227,-0.676111 4.017843,-1.683619 h 0.05271 c 0.645215,1.635046 2.294621,2.720751 4.140316,2.725415 1.845695,-0.0046 3.495102,-1.090369 4.140316,-2.725415 h 0.02946 c 0.722557,1.487697 1.947969,2.226453 3.679362,2.226738 0.36559,0 0.714135,-0.03935 1.046447,-0.10697 V 9.8040528 c 0,-3.1060947 -2.500281,-5.6063762 -5.606376,-5.6063762 z" /><path
         id="rect2"
         style="display:inline;fill:url(#linearGradient13);fill-opacity:1;stroke:none;stroke-width:0.0733956;stroke-dasharray:none;stroke-opacity:1;paint-order:markers stroke fill"
         inkscape:label="grass"
         d="M 5.383134,0 C 4.6264964,0 3.414155,0.27111946 2.7249292,0.58399586 1.3125329,1.3182693 0.66296837,3.1978318 0.65827687,4.7218295 c -0.0343889,3.3711643 -0.0136492,0.2360297 -0.0105178,2.8973111 4.4e-7,2.3142579 1.88495293,4.1903344 4.33255203,4.1903344 1.2811798,-3.51e-4 2.4995096,-0.524923 3.3408814,-1.438473 0.7558638,1.397873 2.2747325,2.278971 3.9351605,2.282795 1.49844,-6.23e-4 2.926185,-0.588865 3.743548,-1.77633 0.841333,0.930157 2.039604,1.337743 3.334056,1.338533 1.845114,-0.0046 3.494142,-1.089708 4.139799,-2.72401 0.839626,0.969905 2.094349,1.53351 3.419946,1.536195 1.355361,-0.0035 3.180227,-0.675866 4.017843,-1.683374 h 0.05271 c 0.645215,1.635046 2.294619,2.720813 4.140316,2.725477 1.845697,-0.0046 3.4951,-1.090431 4.140315,-2.725477 h 0.02946 c 0.722558,1.487697 1.947968,2.226335 3.679362,2.22662 2.447599,0 4.233333,-1.5784225 4.233333,-3.89268 l 0.04987,-2.6098294 C 47.236484,3.4325452 45.964075,1.1740436 44.391606,0.49056644 43.870374,0.18036488 43.265592,0 42.617037,0 Z"
         sodipodi:nodetypes="scccccccccccccccccccss" /></g><g
       id="g18"
       inkscape:label="2"><rect
         style="display:inline;fill:#cf8e68;fill-opacity:1;stroke:none;stroke-width:0.0379297;stroke-dasharray:none;stroke-opacity:1;paint-order:markers stroke fill"
         id="rect4"
         width="32.000473"
         height="16.000725"
         x="48"
         y="6.1062266e-16" /><path
         id="path16"
         style="fill:#000000;fill-opacity:0.246575;stroke-width:20;stroke-linecap:round;stroke-linejoin:round;paint-order:markers stroke fill"
         d="m 53.383076,3.2302999 c -0.756637,0 -1.969011,0.2710676 -2.658236,0.5839437 -1.412395,0.7342727 -2.061849,2.6137357 -2.06654,4.1377319 -0.03439,3.3711605 -0.01398,0.2362188 -0.01085,2.8974975 10e-7,2.314256 1.884956,4.190442 4.332553,4.190442 1.281178,-3.51e-4 2.49951,-0.525123 3.340881,-1.438672 0.755863,1.397872 2.274734,2.279241 3.93516,2.283065 1.498439,-6.23e-4 2.926596,-0.589172 3.743958,-1.776636 V 3.2302999 Z" /><path
         id="rect14"
         style="fill:url(#linearGradient16);fill-opacity:1;stroke-width:20;stroke-linecap:round;stroke-linejoin:round;paint-order:markers stroke fill"
         d="M 53.383076,0 C 52.626439,0 51.414065,0.2710676 50.72484,0.58394368 49.312445,1.3182164 48.662991,3.1976794 48.6583,4.7216756 c -0.03439,3.3711609 -0.01398,0.2362188 -0.01085,2.8974976 10e-7,2.3142556 1.884956,4.1904418 4.332553,4.1904418 1.281178,-3.51e-4 2.49951,-0.525123 3.340881,-1.438672 0.755863,1.397872 2.274734,2.279241 3.93516,2.283065 1.498439,-6.23e-4 2.926596,-0.589172 3.743958,-1.776636 V 0 Z" /><path
         id="path17"
         style="fill:#000000;fill-opacity:0.246575;stroke-width:20;stroke-linecap:round;stroke-linejoin:round;paint-order:markers stroke fill"
         d="m 74.616928,3.2302999 c 0.756637,0 1.969011,0.2710676 2.658236,0.5839437 1.412395,0.7342727 2.061849,2.6137357 2.06654,4.1377319 0.03439,3.3711605 0.01398,0.2362188 0.01085,2.8974975 -10e-7,2.314256 -1.884956,4.190442 -4.332553,4.190442 -1.281178,-3.51e-4 -2.49951,-0.525123 -3.340881,-1.438672 -0.755863,1.397872 -2.274734,2.279241 -3.93516,2.283065 -1.498439,-6.23e-4 -2.926596,-0.589172 -3.743958,-1.776636 V 3.2302999 Z" /><path
         id="path18"
         style="fill:url(#linearGradient18);fill-opacity:1;stroke-width:20;stroke-linecap:round;stroke-linejoin:round;paint-order:markers stroke fill"
         d="m 74.616928,0 c 0.756637,0 1.969011,0.2710676 2.658236,0.58394368 1.412395,0.73427272 2.061849,2.61373572 2.06654,4.13773192 0.03439,3.3711609 0.01398,0.2362188 0.01085,2.8974976 -10e-7,2.3142556 -1.884956,4.1904418 -4.332553,4.1904418 -1.281178,-3.51e-4 -2.49951,-0.525123 -3.340881,-1.438672 -0.755863,1.397872 -2.274734,2.279241 -3.93516,2.283065 -1.498439,-6.23e-4 -2.926596,-0.589172 -3.743958,-1.776636 V 0 Z" /></g><rect
       style="fill:#cf8e68;fill-opacity:1;stroke-width:7;stroke-linecap:round;stroke-linejoin:round;paint-order:markers stroke fill"
       id="rect18"
       width="16"
       height="16"
       x="48"
       y="16"
       ry="0" /><rect
       style="fill:#885840;fill-opacity:1;stroke-width:6.34922;stroke-linecap:round;stroke-linejoin:round;paint-order:markers stroke fill"
       id="rect20"
       width="5.5715895"
       height="5.5715895"
       x="-30.106621"
       y="56.399193"
       transform="rotate(-90)"
       ry="1.5797594" /><g
       id="g49"
       inkscape:label="4"
       style="display:inline"><path
         style="fill:url(#linearGradient47);fill-opacity:1;stroke:none;stroke-width:0.264583px;stroke-linecap:butt;stroke-linejoin:miter;stroke-opacity:1"
         d="M 80,16 96.000003,0 v 16 z"
         id="path45" /><use
         x="0"
         y="0"
         xlink:href="#path45"
         id="use47"
         transform="rotate(90,96.000002,16)" /><use
         x="0"
         y="0"
         xlink:href="#path45"
         id="use48"
         transform="rotate(180,96.000003,16)" /><use
         x="0"
         y="0"
         xlink:href="#path45"
         id="use49"
         transform="rotate(-90,96.000003,16.000001)" /><rect
         style="fill:#9c6b4e;fill-opacity:1;stroke:#242424;stroke-width:0;stroke-linecap:round;stroke-linejoin:round;paint-order:markers stroke fill"
         id="rect40"
         width="5.7047305"
         height="5.7047305"
         x="53.716179"
         y="76.34359"
         transform="rotate(-45)" /></g><rect
       style="fill:#885840;fill-opacity:1;stroke-width:6.34924;stroke-linecap:round;stroke-linejoin:round;paint-order:markers stroke fill"
       id="rect21"
       width="2.8588037"
       height="2.8588037"
       x="-21.219908"
       y="49.944626"
       transform="rotate(-90)"
       ry="0.81058049" /></g></svg>
