<?xml version="1.0" encoding="UTF-8" standalone="no"?>
<!-- Created with Inkscape (http://www.inkscape.org/) -->

<svg
   width="256mm"
   height="256mm"
   viewBox="0 0 256 256"
   version="1.1"
   id="svg1"
   xml:space="preserve"
   inkscape:version="1.3.2 (091e20e, 2023-11-25, custom)"
   sodipodi:docname="fox.svg"
   inkscape:export-filename="exported\fox\complete.svg"
   inkscape:export-xdpi="96"
   inkscape:export-ydpi="96"
   xmlns:inkscape="http://www.inkscape.org/namespaces/inkscape"
   xmlns:sodipodi="http://sodipodi.sourceforge.net/DTD/sodipodi-0.dtd"
   xmlns:xlink="http://www.w3.org/1999/xlink"
   xmlns="http://www.w3.org/2000/svg"
   xmlns:svg="http://www.w3.org/2000/svg"><sodipodi:namedview
     id="namedview1"
     pagecolor="#ffffff"
     bordercolor="#dddddd"
     borderopacity="1"
     inkscape:showpageshadow="0"
     inkscape:pageopacity="0"
     inkscape:pagecheckerboard="0"
     inkscape:deskcolor="#353535"
     inkscape:document-units="mm"
     showborder="true"
     inkscape:zoom="0.37892916"
     inkscape:cx="-222.99683"
     inkscape:cy="671.62949"
     inkscape:window-width="2560"
     inkscape:window-height="1017"
     inkscape:window-x="1912"
     inkscape:window-y="-8"
     inkscape:window-maximized="1"
     inkscape:current-layer="layer1"
     showguides="true" /><defs
     id="defs1"><linearGradient
       id="linearGradient10"
       inkscape:collect="always"><stop
         style="stop-color:#dc7c40;stop-opacity:1;"
         offset="0"
         id="stop11" /><stop
         style="stop-color:#ffa15f;stop-opacity:1;"
         offset="1"
         id="stop16" /></linearGradient><linearGradient
       id="linearGradient4"
       inkscape:collect="always"><stop
         style="stop-color:#623925;stop-opacity:1"
         offset="0.39478263"
         id="stop3" /><stop
         style="stop-color:#dc7c40;stop-opacity:1;"
         offset="0.39478263"
         id="stop7" /><stop
         style="stop-color:#ffa15f;stop-opacity:1;"
         offset="0.9130435"
         id="stop4" /></linearGradient><linearGradient
       id="linearGradient22"
       inkscape:collect="always"><stop
         style="stop-color:#ffa15f;stop-opacity:1;"
         offset="0.09440559"
         id="stop23" /><stop
         style="stop-color:#dc7c40;stop-opacity:1;"
         offset="0.84440559"
         id="stop22" /></linearGradient><linearGradient
       id="linearGradient14"
       inkscape:collect="always"><stop
         style="stop-color:#623925;stop-opacity:1;"
         offset="0"
         id="stop14" /><stop
         style="stop-color:#392217;stop-opacity:1;"
         offset="1"
         id="stop15" /></linearGradient><linearGradient
       id="linearGradient12"
       inkscape:collect="always"><stop
         style="stop-color:#ffaa6e;stop-opacity:1;"
         offset="0"
         id="stop13" /><stop
         style="stop-color:#dc7c40;stop-opacity:1"
         offset="1"
         id="stop12" /></linearGradient><inkscape:path-effect
       effect="fillet_chamfer"
       id="path-effect6"
       is_visible="true"
       lpeversion="1"
       nodesatellites_param="F,0,0,1,0,8.5936768,0,1 @ F,0,0,1,0,0,0,1 @ F,0,0,1,0,0,0,1 @ F,0,0,1,0,0,0,1 @ F,0,0,1,0,0,0,1"
       radius="0"
       unit="px"
       method="auto"
       mode="F"
       chamfer_steps="1"
       flexible="false"
       use_knot_distance="true"
       apply_no_radius="true"
       apply_with_radius="true"
       only_selected="false"
       hide_knots="false" /><linearGradient
       id="linearGradient5"
       inkscape:collect="always"><stop
         style="stop-color:#623925;stop-opacity:1;"
         offset="0.40695652"
         id="stop5" /><stop
         style="stop-color:#dc7c40;stop-opacity:1;"
         offset="0.40695652"
         id="stop17" /></linearGradient><linearGradient
       id="linearGradient1"
       inkscape:collect="always"><stop
         style="stop-color:#623925;stop-opacity:1"
         offset="0.48000002"
         id="stop2" /><stop
         style="stop-color:#dc7c40;stop-opacity:1;"
         offset="0.48000002"
         id="stop10" /><stop
         style="stop-color:#ffa15f;stop-opacity:1;"
         offset="0.9130435"
         id="stop1" /></linearGradient><inkscape:path-effect
       effect="perspective-envelope"
       up_left_point="194.17747,65.528382"
       up_right_point="234.29043,65.528382"
       down_left_point="194.17747,99.841968"
       down_right_point="234.29043,99.841968"
       id="path-effect18"
       is_visible="true"
       lpeversion="1"
       deform_type="perspective"
       horizontal_mirror="true"
       vertical_mirror="false"
       overflow_perspective="false" /><inkscape:path-effect
       effect="mirror_symmetry"
       start_point="214.07863,65.564341"
       end_point="214.07863,99.841967"
       center_point="214.07863,82.703154"
       id="path-effect12"
       is_visible="true"
       lpeversion="1.2"
       lpesatellites=""
       mode="free"
       discard_orig_path="false"
       fuse_paths="true"
       oposite_fuse="false"
       split_items="false"
       split_open="false"
       link_styles="false" /><inkscape:path-effect
       effect="mirror_symmetry"
       start_point="214.23395,65.56434"
       end_point="214.23395,99.841968"
       center_point="214.23395,82.703154"
       id="path-effect55"
       is_visible="true"
       lpeversion="1.2"
       lpesatellites=""
       mode="free"
       discard_orig_path="false"
       fuse_paths="false"
       oposite_fuse="false"
       split_items="false"
       split_open="false"
       link_styles="false" /><inkscape:path-effect
       effect="mirror_symmetry"
       start_point="214.23395,65.56434"
       end_point="214.23395,99.841968"
       center_point="214.23395,82.703154"
       id="path-effect49"
       is_visible="true"
       lpeversion="1.2"
       lpesatellites=""
       mode="free"
       discard_orig_path="false"
       fuse_paths="false"
       oposite_fuse="false"
       split_items="false"
       split_open="false"
       link_styles="false" /><inkscape:path-effect
       effect="mirror_symmetry"
       start_point="112.46043,125.26362"
       end_point="112.46043,179.59066"
       center_point="112.46043,152.42714"
       id="path-effect48"
       is_visible="true"
       lpeversion="1.2"
       lpesatellites=""
       mode="free"
       discard_orig_path="false"
       fuse_paths="false"
       oposite_fuse="false"
       split_items="false"
       split_open="false"
       link_styles="false" /><inkscape:path-effect
       effect="mirror_symmetry"
       start_point="116.95885,125.26362"
       end_point="116.95885,179.59066"
       center_point="116.95885,152.42714"
       id="path-effect47"
       is_visible="true"
       lpeversion="1.2"
       lpesatellites=""
       mode="free"
       discard_orig_path="false"
       fuse_paths="false"
       oposite_fuse="false"
       split_items="false"
       split_open="false"
       link_styles="false" /><inkscape:path-effect
       effect="mirror_symmetry"
       start_point="24.983819,125.94277"
       end_point="276.09411,80.04268"
       center_point="150.53897,102.99273"
       id="path-effect37"
       is_visible="true"
       lpeversion="1.2"
       lpesatellites=""
       mode="free"
       discard_orig_path="false"
       fuse_paths="false"
       oposite_fuse="false"
       split_items="false"
       split_open="false"
       link_styles="false" /><linearGradient
       inkscape:collect="always"
       xlink:href="#linearGradient4"
       id="linearGradient2"
       x1="67.417351"
       y1="217.5392"
       x2="83.514832"
       y2="172.15363"
       gradientUnits="userSpaceOnUse" /><linearGradient
       inkscape:collect="always"
       xlink:href="#linearGradient1"
       id="linearGradient3"
       gradientUnits="userSpaceOnUse"
       x1="67.417351"
       y1="217.5392"
       x2="83.514832"
       y2="172.15363"
       gradientTransform="matrix(-1,0,0,1,251.58223,0)" /><linearGradient
       inkscape:collect="always"
       xlink:href="#linearGradient5"
       id="linearGradient6"
       x1="124.32587"
       y1="248.41016"
       x2="125.47928"
       y2="221.51151"
       gradientUnits="userSpaceOnUse" /><linearGradient
       inkscape:collect="always"
       xlink:href="#linearGradient12"
       id="linearGradient13"
       x1="108.73038"
       y1="86.698586"
       x2="115.39259"
       y2="106.10267"
       gradientUnits="userSpaceOnUse"
       gradientTransform="matrix(3.4900022,-0.31307532,0.31307532,3.4900022,-354.94271,-262.60243)" /><linearGradient
       inkscape:collect="always"
       xlink:href="#linearGradient14"
       id="linearGradient15"
       x1="109.93742"
       y1="89.562584"
       x2="114.77606"
       y2="103.43627"
       gradientUnits="userSpaceOnUse"
       gradientTransform="matrix(3.4900022,-0.31307532,0.31307532,3.4900022,-354.94271,-262.60243)" /><linearGradient
       inkscape:collect="always"
       xlink:href="#linearGradient22"
       id="linearGradient23"
       x1="127.87605"
       y1="37.523476"
       x2="128.61665"
       y2="172.55861"
       gradientUnits="userSpaceOnUse" /><linearGradient
       inkscape:collect="always"
       xlink:href="#linearGradient10"
       id="linearGradient16"
       x1="126.8886"
       y1="228.10323"
       x2="127.87605"
       y2="172.80548"
       gradientUnits="userSpaceOnUse" /></defs><g
     inkscape:label="Layer 1"
     inkscape:groupmode="layer"
     id="layer1"><path
       id="path4"
       style="display:inline;opacity:1;fill:#dc7c40;fill-opacity:1;stroke-width:1.04053"
       d="m 52.889278,195.32038 a 37.029743,37.029743 0 0 0 -3.022554,14.51487 37.029743,37.029743 0 0 0 5.535579,19.39262 c 7.376073,-1.06719 14.562881,-2.40512 20.947042,-3.85765 18.166862,-4.13333 31.392535,-12.82381 31.159335,-15.54065 -0.20147,-2.34727 -12.041113,-4.4231 -29.891195,-8.25066 -7.452083,-1.59793 -15.997261,-4.00541 -24.728207,-6.25853 z"
       inkscape:label="tail1"
       inkscape:export-filename="exported\tail_complete.svg"
       inkscape:export-xdpi="96"
       inkscape:export-ydpi="96" /><path
       id="circle5"
       style="display:inline;opacity:1;fill:#dc7c40;fill-opacity:1;stroke-width:1.06827"
       d="m 16.109611,189.33831 c -1.326068,-0.0115 -2.605639,0.0116 -3.861263,0.0517 a 38.017204,38.017204 0 0 0 -6.323645,20.93877 38.017204,38.017204 0 0 0 5.788277,20.1011 c 3.564382,0.56897 7.378435,0.95194 11.484054,1.0697 16.510083,0.47358 37.285687,-2.51936 53.152311,-6.12934 0.917153,-0.20867 1.812327,-0.43659 2.703194,-0.66714 a 38.017204,38.017204 0 0 0 2.906799,-14.37432 38.017204,38.017204 0 0 0 -0.865063,-8.01501 c -1.211217,-0.25618 -2.202232,-0.46154 -3.47679,-0.73484 -16.025234,-3.43626 -36.948759,-10.62869 -54.420451,-11.93829 -2.468051,-0.18499 -4.829519,-0.28266 -7.087423,-0.30231 z"
       inkscape:label="tail2" /><path
       id="path1-6"
       style="display:inline;fill:#dc7c40;stroke-width:0.659"
       inkscape:label="tail3"
       d="m 16.109611,189.33831 c -33.868557,-0.29462 -44.514596,16.90259 -44.514596,18.26969 0,1.1429 14.581889,22.82966 51.602019,23.89156 2.796052,0.0802 5.742303,0.0294 8.738484,-0.0754 a 41.473312,41.473312 0 0 0 7.069336,-23.06991 41.473312,41.473312 0 0 0 -3.681429,-17.05374 c -4.150712,-0.77124 -8.226777,-1.36755 -12.126391,-1.65985 -2.468051,-0.18499 -4.829519,-0.28266 -7.087423,-0.30231 z" /><path
       id="path3"
       style="display:inline;fill:#623925;fill-opacity:1;stroke-width:0.659"
       d="m -3.2266764,191.39297 c -18.7406826,4.54746 -25.1783086,15.15313 -25.1783086,16.21503 0,0.80615 7.26936,11.82728 24.5359705,18.62832 a 29.326061,29.675179 0 0 0 5.9639771,-17.81183 29.326061,29.675179 0 0 0 -5.321639,-17.03152 z"
       inkscape:export-filename="exported\tail3.svg"
       inkscape:export-xdpi="96"
       inkscape:export-ydpi="96"
       inkscape:label="tail_tip" /><use
       x="0"
       y="0"
       xlink:href="#rect69"
       id="use6"
       transform="matrix(-1,0,0,1,256.4754,0)"
       inkscape:label="legR"
       style="display:inline" /><rect
       style="display:inline;fill:url(#linearGradient6);fill-opacity:1;stroke-width:0.659319;stroke-dasharray:none"
       id="rect69"
       width="25.662418"
       height="45.854858"
       x="111.80401"
       y="203.92683"
       ry="5.7613301"
       transform="matrix(0.99957616,0.02911192,-0.07302746,0.99732993,0,0)"
       inkscape:label="legL"
       rx="5.7613306"
       inkscape:export-filename="exported\leg.svg"
       inkscape:export-xdpi="96"
       inkscape:export-ydpi="96" /><path
       id="path2"
       style="display:inline;fill:url(#linearGradient3);fill-opacity:1;stroke-width:12.0022;stroke-linecap:round"
       d="m 162.21536,157.55414 c 6.46974,-2.43978 13.25684,0.96332 16.08227,7.27425 3.73188,8.33536 8.87273,23.52836 8.87273,23.52836 6.0021,15.91534 6.4632,28.75248 -0.007,31.19237 -6.46978,2.43973 -14.69258,0.57234 -23.28507,-22.21259 -2.37463,-6.29718 -7.03287,-16.04876 -8.93751,-23.70015 -1.62597,-6.53157 0.8045,-13.64237 7.2742,-16.08224 z"
       sodipodi:nodetypes="sssssss"
       inkscape:label="armR" /><path
       id="path70"
       style="display:inline;fill:url(#linearGradient16);fill-opacity:1;stroke-width:14.1819;stroke-linecap:round"
       d="m 89.231301,158.87427 c -5.238744,23.53672 -4.160138,36.79364 -4.160138,36.79364 h 0.0036 c -0.0992,0.99769 -0.152426,2.01004 -0.152426,3.03588 0,15.95986 8.721528,30.21733 40.856103,30.21733 31.23339,-0.15628 40.85627,-14.25747 40.85627,-30.21733 0,-1.02584 0.0109,-1.4553 -0.0175,-2.49304 0,0 0.77902,-17.90682 -4.2922,-37.33648 z"
       sodipodi:nodetypes="cccscsccc"
       inkscape:label="body" /><path
       id="path71"
       style="display:inline;fill:#feead7;stroke-width:1.20553"
       inkscape:label="belly"
       d="m 160.58435,168.131 c 0,18.75118 4.92308,48.32602 -23.78353,52.30179 -28.70663,3.97579 -31.73512,-27.12819 -31.73512,-45.87935 0,-18.75118 14.71746,-23.24793 28.6768,-23.24795 13.95935,0 26.84185,-1.92566 26.84185,16.82551 z"
       sodipodi:nodetypes="szszs" /><path
       id="path72"
       style="display:inline;fill:url(#linearGradient2);stroke-width:12.0022;stroke-linecap:round"
       d="m 89.366872,157.55414 c -6.469741,-2.43978 -13.256847,0.96332 -16.082275,7.27425 -3.731884,8.33536 -8.872732,23.52836 -8.872732,23.52836 -6.0021,15.91534 -6.463193,28.75248 0.0071,31.19237 6.469782,2.43973 14.692586,0.57234 23.285069,-22.21259 2.374638,-6.29718 7.032876,-16.04876 8.937517,-23.70015 1.625962,-6.53157 -0.8045,-13.64237 -7.274202,-16.08224 z"
       sodipodi:nodetypes="sssssss"
       inkscape:label="armL" /><g
       id="g22"
       inkscape:label="earR"
       style="display:inline"><use
         x="0"
         y="0"
         xlink:href="#path75"
         id="use14"
         transform="matrix(-0.99998156,-0.00607388,-0.00607388,0.99998156,253.22118,0.4619511)"
         style="display:inline"
         inkscape:label="ear" /><use
         x="0"
         y="0"
         xlink:href="#path76"
         id="use20"
         transform="matrix(-0.99955302,-0.02989526,-0.02989526,0.99955302,254.95006,0.75318662)"
         inkscape:label="dark" /></g><g
       id="g20"
       inkscape:label="earL"
       style="display:inline"><path
         style="display:inline;fill:url(#linearGradient13);fill-opacity:1;stroke:none;stroke-width:0.982474px;stroke-linecap:butt;stroke-linejoin:miter;stroke-opacity:1"
         d="M 112.07791,60.676094 C 105.3226,41.595539 59.005467,0.52318653 51.142146,3.4048086 45.918598,5.3190568 44.339698,36.745563 47.036039,88.567302 Z"
         id="path75"
         sodipodi:nodetypes="cscc"
         inkscape:label="ear" /><path
         style="fill:url(#linearGradient15);fill-opacity:1;stroke:none;stroke-width:0.927103px;stroke-linecap:butt;stroke-linejoin:miter;stroke-opacity:1"
         d="m 57.732851,83.980303 c 0,0 -6.12434,-68.521816 -1.540412,-70.627007 4.755656,-0.960317 47.363971,50.976982 47.363971,50.976982 z"
         id="path76"
         sodipodi:nodetypes="cccc"
         inkscape:label="dark" /></g><path
       id="path77"
       style="display:inline;fill:url(#linearGradient23);fill-opacity:1;stroke-width:0.927103"
       inkscape:label="head"
       d="m 122.76639,36.318521 c -36.422359,0.259052 -69.149594,22.435735 -83.106198,55.519425 -0.961255,2.258968 -2.790983,6.871929 -4.286076,12.733194 -5.597141,6.10965 -22.23593,6.31432 -22.435201,6.69002 -0.297492,0.46723 12.42433,13.07956 12.42433,13.34217 -0.217249,0.32869 -3.763593,5.59116 -9.04569,5.07674 -0.15733,0.37001 17.461392,12.699 23.865683,19.26164 21.962019,16.29593 36.763897,26.90595 86.253302,26.90595 44.82341,0 71.9832,-10.93194 84.87351,-26.81905 6.39773,-6.5552 15.12218,-24.47297 14.96404,-24.8445 -4.04142,0.39362 -6.88458,0.17626 -7.92231,-1.39299 0.1626,-1.78898 9.34606,-15.93087 8.92411,-16.59346 -0.18676,-0.35235 -7.15588,3.84884 -9.98506,-0.53833 C 215.335,99.097467 213.21788,94.380632 211.98188,91.70759 197.43614,60.681766 166.74067,35.892699 127.04862,36.389177 Z"
       sodipodi:nodetypes="cccccccscccccccc" /><path
       id="path78"
       style="display:inline;fill:#feead7;fill-opacity:1;stroke-width:1.54468"
       inkscape:label="white_fur"
       d="m 227.27589,106.19769 c -15.16174,7.83445 -28.448,10.43547 -41.13726,10.44053 -17.22849,0.007 -16.78322,-4.68239 -34.01174,-4.70796 v -0.001 c -15.69918,-0.0245 -42.38069,8.82579 -59.316555,9.40686 -15.017717,0.51524 -63.846678,-0.0673 -79.87142,-10.07414 0.13315,0.22706 0.358494,0.53646 0.568595,0.83293 2.391562,2.86672 11.855735,12.28234 11.855735,12.50924 -0.19097,0.28873 -2.948736,4.37764 -7.195113,5.0224 -0.538637,0.0909 -1.145182,0.123 -1.850577,0.0543 -0.15733,0.37002 17.460831,12.69929 23.865122,19.26193 21.961985,16.29592 36.763966,26.90594 86.253283,26.90594 44.82338,0 71.98324,-10.93193 84.87353,-26.81901 6.39772,-6.55521 15.12274,-24.47328 14.9646,-24.8448 -4.04142,0.39359 -6.88458,0.17625 -7.92231,-1.39299 0.14016,-1.54383 6.97258,-12.25113 8.57826,-15.59211 z"
       sodipodi:nodetypes="ccccsccccccsccccc" /><ellipse
       style="fill:#37321f;fill-opacity:1;stroke-width:0.947307"
       id="use78"
       cx="164.29402"
       cy="119.49464"
       rx="9.5818777"
       ry="14.308715"
       inkscape:label="eyeL"
       transform="matrix(0.97732646,-0.21173804,0.14923844,0.98880124,0,0)" /><ellipse
       style="display:inline;fill:#37321f;fill-opacity:1;stroke-width:0.947307"
       id="ellipse78"
       cx="-112.30479"
       cy="60.264843"
       rx="9.5818768"
       ry="14.308714"
       inkscape:label="eyeL"
       transform="matrix(-0.97732646,-0.21173804,-0.14923844,0.98880124,0,0)" /><path
       id="path79"
       style="display:inline;fill:#37321f;fill-opacity:1;stroke-width:1.32208"
       d="m 164.15299,109.07297 c 0,4.09472 -4.88152,10.57604 -10.90317,10.57604 -6.02164,0 -10.90317,-6.48132 -10.90317,-10.57604 0,-4.09472 4.88153,-4.25222 10.90317,-4.25222 6.02165,0 10.90317,0.15733 10.90317,4.25222 z"
       sodipodi:nodetypes="sssss"
       inkscape:label="nose" /><rect
       style="display:none;opacity:0;fill:#4f6781;fill-opacity:1;stroke-width:0.532858;stroke-dasharray:none"
       id="rect31"
       width="191.64267"
       height="131.01913"
       x="-58.042343"
       y="128.38857"
       rx="1.3233963"
       ry="1.3355954"
       inkscape:label="export_tail"
       inkscape:export-filename="exported\tail2.svg"
       inkscape:export-xdpi="96"
       inkscape:export-ydpi="96" /><rect
       style="display:none;opacity:0;fill:#4f6781;fill-opacity:1;stroke-width:0.21537;stroke-dasharray:none"
       id="rect30"
       width="53.645161"
       height="76.461983"
       x="80.69577"
       y="190.35167"
       rx="0.37044886"
       ry="0.77944541"
       inkscape:label="export_leg"
       inkscape:export-filename="exported\leg.svg"
       inkscape:export-xdpi="96"
       inkscape:export-ydpi="96" /><rect
       style="display:none;opacity:0;fill:#4f6781;fill-opacity:1;stroke-width:0.386075;stroke-dasharray:none"
       id="rect28"
       width="124.24854"
       height="106.08578"
       x="61.934032"
       y="138.7569"
       rx="0.85800344"
       ry="1.0814273"
       inkscape:label="export_body"
       inkscape:export-filename="exported\body.svg"
       inkscape:export-xdpi="96"
       inkscape:export-ydpi="96" /><rect
       style="display:none;opacity:0;fill:#4f6781;fill-opacity:1;stroke-width:0.269513;stroke-dasharray:none"
       id="rect25"
       width="70.185104"
       height="91.520744"
       x="42.431705"
       y="142.21301"
       rx="0.4846662"
       ry="0.93295294"
       inkscape:label="export_arm"
       inkscape:export-filename="exported\ear.svg"
       inkscape:export-xdpi="96"
       inkscape:export-ydpi="96" /><rect
       style="display:none;opacity:0;fill:#4f6781;fill-opacity:1;stroke-width:0.674304;stroke-dasharray:none"
       id="rect26"
       width="238.44882"
       height="168.62485"
       x="3.4911993"
       y="20.598068"
       rx="1.6466181"
       ry="1.718944"
       inkscape:label="export_head"
       inkscape:export-filename="exported\fox\head_with_eyes.svg"
       inkscape:export-xdpi="96"
       inkscape:export-ydpi="96" /><rect
       style="display:none;opacity:0;fill:#4f6781;fill-opacity:1;stroke-width:0.229133;stroke-dasharray:none"
       id="rect27"
       width="62.143314"
       height="74.711617"
       x="70.871323"
       y="47.131172"
       rx="0.42913327"
       ry="0.7616024"
       inkscape:label="export_eye"
       inkscape:export-filename="exported\fox\eye.svg"
       inkscape:export-xdpi="96"
       inkscape:export-ydpi="96" /><rect
       style="display:none;opacity:0;fill:#4f6781;fill-opacity:1;stroke-width:0.389373;stroke-dasharray:none"
       id="rect1"
       width="110.67097"
       height="121.14455"
       x="16.757751"
       y="-22.692787"
       rx="0.76424301"
       ry="1.2349348"
       inkscape:label="export_ear"
       inkscape:export-filename="exported\fox_with_shadows\ear.svg"
       inkscape:export-xdpi="96"
       inkscape:export-ydpi="96" /></g></svg>
